<?xml version="1.0" encoding="utf-8" standalone="no"?>
<!DOCTYPE svg PUBLIC "-//W3C//DTD SVG 1.1//EN"
  "http://www.w3.org/Graphics/SVG/1.1/DTD/svg11.dtd">
<svg xmlns:xlink="http://www.w3.org/1999/xlink" width="953.111631pt" height="787.857264pt" viewBox="0 0 953.111631 787.857264" xmlns="http://www.w3.org/2000/svg" version="1.1">
 <metadata>
  <rdf:RDF xmlns:dc="http://purl.org/dc/elements/1.1/" xmlns:cc="http://creativecommons.org/ns#" xmlns:rdf="http://www.w3.org/1999/02/22-rdf-syntax-ns#">
   <cc:Work>
    <dc:type rdf:resource="http://purl.org/dc/dcmitype/StillImage"/>
    <dc:date>2026-01-29T07:42:29.026050</dc:date>
    <dc:format>image/svg+xml</dc:format>
    <dc:creator>
     <cc:Agent>
      <dc:title>Matplotlib v3.10.8, https://matplotlib.org/</dc:title>
     </cc:Agent>
    </dc:creator>
   </cc:Work>
  </rdf:RDF>
 </metadata>
 <defs>
  <style type="text/css">*{stroke-linejoin: round; stroke-linecap: butt}</style>
 </defs>
 <g id="figure_1">
  <g id="patch_1">
   <path d="M 0 787.857264
L 953.111631 787.857264
L 953.111631 0
L 0 0
z
" style="fill: #ffffff"/>
  </g>
  <g id="axes_1">
   <g id="patch_2">
    <path d="M 397.352022 432.553708
L 555.759609 432.553708
Q 567.493505 432.553708 567.493505 420.819812
L 567.493505 356.283388
Q 567.493505 344.549492 555.759609 344.549492
L 397.352022 344.549492
Q 385.618126 344.549492 385.618126 356.283388
L 385.618126 420.819812
Q 385.618126 432.553708 397.352022 432.553708
z
" clip-path="url(#pd3e7b617d9)" style="fill: #1a365d; stroke: #ffffff; stroke-width: 2; stroke-linejoin: miter"/>
   </g>
   <g id="patch_3">
    <path d="M 192.008852 300.547385
L 315.214754 300.547385
Q 326.948649 300.547385 326.948649 288.813489
L 326.948649 253.611803
Q 326.948649 241.877908 315.214754 241.877908
L 192.008852 241.877908
Q 180.274957 241.877908 180.274957 253.611803
L 180.274957 288.813489
Q 180.274957 300.547385 192.008852 300.547385
z
" clip-path="url(#pd3e7b617d9)" style="fill: #2b6cb0; stroke: #ffffff; stroke-width: 2; stroke-linejoin: miter"/>
   </g>
   <g id="patch_4">
    <path d="M 8.37339 308.174417
L 146.833355 308.174417
Q 155.633777 308.174417 155.633777 299.373995
L 155.633777 243.051297
Q 155.633777 234.250876 146.833355 234.250876
L 8.37339 234.250876
Q -0.427032 234.250876 -0.427032 243.051297
L -0.427032 299.373995
Q -0.427032 308.174417 8.37339 308.174417
z
" clip-path="url(#pd3e7b617d9)" style="fill: #4299e1; stroke: #ffffff; stroke-width: 1.5; stroke-linejoin: miter"/>
   </g>
   <g id="patch_5">
    <path d="M 174.408009 535.225292
L 332.815597 535.225292
Q 344.549492 535.225292 344.549492 523.491397
L 344.549492 488.289711
Q 344.549492 476.555815 332.815597 476.555815
L 174.408009 476.555815
Q 162.674114 476.555815 162.674114 488.289711
L 162.674114 523.491397
Q 162.674114 535.225292 174.408009 535.225292
z
" clip-path="url(#pd3e7b617d9)" style="fill: #2b6cb0; stroke: #ffffff; stroke-width: 2; stroke-linejoin: miter"/>
   </g>
   <g id="patch_6">
    <path d="M 8.37339 542.852324
L 146.833355 542.852324
Q 155.633777 542.852324 155.633777 534.051903
L 155.633777 477.729205
Q 155.633777 468.928783 146.833355 468.928783
L 8.37339 468.928783
Q -0.427032 468.928783 -0.427032 477.729205
L -0.427032 534.051903
Q -0.427032 542.852324 8.37339 542.852324
z
" clip-path="url(#pd3e7b617d9)" style="fill: #4299e1; stroke: #ffffff; stroke-width: 1.5; stroke-linejoin: miter"/>
   </g>
   <g id="patch_7">
    <path d="M 614.429086 241.877908
L 784.570569 241.877908
Q 796.304465 241.877908 796.304465 230.144012
L 796.304465 194.942326
Q 796.304465 183.208431 784.570569 183.208431
L 614.429086 183.208431
Q 602.695191 183.208431 602.695191 194.942326
L 602.695191 230.144012
Q 602.695191 241.877908 614.429086 241.877908
z
" clip-path="url(#pd3e7b617d9)" style="fill: #2b6cb0; stroke: #ffffff; stroke-width: 2; stroke-linejoin: miter"/>
   </g>
   <g id="patch_8">
    <path d="M 818.012171 249.50494
L 956.472137 249.50494
Q 965.272558 249.50494 965.272558 240.704518
L 965.272558 184.38182
Q 965.272558 175.581399 956.472137 175.581399
L 818.012171 175.581399
Q 809.21175 175.581399 809.21175 184.38182
L 809.21175 240.704518
Q 809.21175 249.50494 818.012171 249.50494
z
" clip-path="url(#pd3e7b617d9)" style="fill: #4299e1; stroke: #ffffff; stroke-width: 1.5; stroke-linejoin: miter"/>
   </g>
   <g id="patch_9">
    <path d="M 637.896877 417.886338
L 725.901092 417.886338
Q 737.634988 417.886338 737.634988 406.152443
L 737.634988 370.950757
Q 737.634988 359.216862 725.901092 359.216862
L 637.896877 359.216862
Q 626.162982 359.216862 626.162982 370.950757
L 626.162982 406.152443
Q 626.162982 417.886338 637.896877 417.886338
z
" clip-path="url(#pd3e7b617d9)" style="fill: #3182ce; stroke: #ffffff; stroke-width: 2; stroke-linejoin: miter"/>
   </g>
   <g id="patch_10">
    <path d="M 788.677433 425.51337
L 927.137398 425.51337
Q 935.93782 425.51337 935.93782 416.712949
L 935.93782 360.390251
Q 935.93782 351.58983 927.137398 351.58983
L 788.677433 351.58983
Q 779.877011 351.58983 779.877011 360.390251
L 779.877011 416.712949
Q 779.877011 425.51337 788.677433 425.51337
z
" clip-path="url(#pd3e7b617d9)" style="fill: #4299e1; stroke: #ffffff; stroke-width: 1.5; stroke-linejoin: miter"/>
   </g>
   <g id="patch_11">
    <path d="M 432.553708 623.229508
L 520.557923 623.229508
Q 532.291818 623.229508 532.291818 611.495612
L 532.291818 576.293926
Q 532.291818 564.560031 520.557923 564.560031
L 432.553708 564.560031
Q 420.819812 564.560031 420.819812 576.293926
L 420.819812 611.495612
Q 420.819812 623.229508 432.553708 623.229508
z
" clip-path="url(#pd3e7b617d9)" style="fill: #3182ce; stroke: #ffffff; stroke-width: 2; stroke-linejoin: miter"/>
   </g>
   <g id="patch_12">
    <path d="M 407.325833 748.195494
L 545.785798 748.195494
Q 554.58622 748.195494 554.58622 739.395072
L 554.58622 683.072374
Q 554.58622 674.271953 545.785798 674.271953
L 407.325833 674.271953
Q 398.525411 674.271953 398.525411 683.072374
L 398.525411 739.395072
Q 398.525411 748.195494 407.325833 748.195494
z
" clip-path="url(#pd3e7b617d9)" style="fill: #4299e1; stroke: #ffffff; stroke-width: 1.5; stroke-linejoin: miter"/>
   </g>
   <g id="patch_13">
    <path d="M 414.952865 183.208431
L 538.158766 183.208431
Q 549.892662 183.208431 549.892662 171.474535
L 549.892662 136.272849
Q 549.892662 124.538954 538.158766 124.538954
L 414.952865 124.538954
Q 403.218969 124.538954 403.218969 136.272849
L 403.218969 171.474535
Q 403.218969 183.208431 414.952865 183.208431
z
" clip-path="url(#pd3e7b617d9)" style="fill: #63b3ed; stroke: #ffffff; stroke-width: 2; stroke-linejoin: miter"/>
   </g>
   <g id="text_1">
    <!-- NegMAS -->
    <g style="fill: #ffffff" transform="translate(429.354253 393.9141) scale(0.2 -0.2)">
     <defs>
      <path id="DejaVuSans-Bold-4e" d="M 588 4666
L 1931 4666
L 3628 1466
L 3628 4666
L 4769 4666
L 4769 0
L 3425 0
L 1728 3200
L 1728 0
L 588 0
L 588 4666
z
" transform="scale(0.015625)"/>
      <path id="DejaVuSans-Bold-65" d="M 4031 1759
L 4031 1441
L 1416 1441
Q 1456 1047 1700 850
Q 1944 653 2381 653
Q 2734 653 3104 758
Q 3475 863 3866 1075
L 3866 213
Q 3469 63 3072 -14
Q 2675 -91 2278 -91
Q 1328 -91 801 392
Q 275 875 275 1747
Q 275 2603 792 3093
Q 1309 3584 2216 3584
Q 3041 3584 3536 3087
Q 4031 2591 4031 1759
z
M 2881 2131
Q 2881 2450 2695 2645
Q 2509 2841 2209 2841
Q 1884 2841 1681 2658
Q 1478 2475 1428 2131
L 2881 2131
z
" transform="scale(0.015625)"/>
      <path id="DejaVuSans-Bold-67" d="M 2919 594
Q 2688 288 2409 144
Q 2131 0 1766 0
Q 1125 0 706 504
Q 288 1009 288 1791
Q 288 2575 706 3076
Q 1125 3578 1766 3578
Q 2131 3578 2409 3434
Q 2688 3291 2919 2981
L 2919 3500
L 4044 3500
L 4044 353
Q 4044 -491 3511 -936
Q 2978 -1381 1966 -1381
Q 1638 -1381 1331 -1331
Q 1025 -1281 716 -1178
L 716 -306
Q 1009 -475 1290 -558
Q 1572 -641 1856 -641
Q 2406 -641 2662 -400
Q 2919 -159 2919 353
L 2919 594
z
M 2181 2772
Q 1834 2772 1640 2515
Q 1447 2259 1447 1791
Q 1447 1309 1634 1061
Q 1822 813 2181 813
Q 2531 813 2725 1069
Q 2919 1325 2919 1791
Q 2919 2259 2725 2515
Q 2531 2772 2181 2772
z
" transform="scale(0.015625)"/>
      <path id="DejaVuSans-Bold-4d" d="M 588 4666
L 2119 4666
L 3181 2169
L 4250 4666
L 5778 4666
L 5778 0
L 4641 0
L 4641 3413
L 3566 897
L 2803 897
L 1728 3413
L 1728 0
L 588 0
L 588 4666
z
" transform="scale(0.015625)"/>
      <path id="DejaVuSans-Bold-41" d="M 3419 850
L 1538 850
L 1241 0
L 31 0
L 1759 4666
L 3194 4666
L 4922 0
L 3713 0
L 3419 850
z
M 1838 1716
L 3116 1716
L 2478 3572
L 1838 1716
z
" transform="scale(0.015625)"/>
      <path id="DejaVuSans-Bold-53" d="M 3834 4519
L 3834 3531
Q 3450 3703 3084 3790
Q 2719 3878 2394 3878
Q 1963 3878 1756 3759
Q 1550 3641 1550 3391
Q 1550 3203 1689 3098
Q 1828 2994 2194 2919
L 2706 2816
Q 3484 2659 3812 2340
Q 4141 2022 4141 1434
Q 4141 663 3683 286
Q 3225 -91 2284 -91
Q 1841 -91 1394 -6
Q 947 78 500 244
L 500 1259
Q 947 1022 1364 901
Q 1781 781 2169 781
Q 2563 781 2772 912
Q 2981 1044 2981 1288
Q 2981 1506 2839 1625
Q 2697 1744 2272 1838
L 1806 1941
Q 1106 2091 782 2419
Q 459 2747 459 3303
Q 459 4000 909 4375
Q 1359 4750 2203 4750
Q 2588 4750 2994 4692
Q 3400 4634 3834 4519
z
" transform="scale(0.015625)"/>
     </defs>
     <use xlink:href="#DejaVuSans-Bold-4e"/>
     <use xlink:href="#DejaVuSans-Bold-65" transform="translate(83.691406 0)"/>
     <use xlink:href="#DejaVuSans-Bold-67" transform="translate(151.513672 0)"/>
     <use xlink:href="#DejaVuSans-Bold-4d" transform="translate(223.095703 0)"/>
     <use xlink:href="#DejaVuSans-Bold-41" transform="translate(322.607422 0)"/>
     <use xlink:href="#DejaVuSans-Bold-53" transform="translate(400 0)"/>
    </g>
   </g>
   <g id="text_2">
    <!-- geniusbridge -->
    <g style="fill: #ffffff" transform="translate(216.525084 273.932959) scale(0.1 -0.1)">
     <defs>
      <path id="DejaVuSans-Bold-6e" d="M 4056 2131
L 4056 0
L 2931 0
L 2931 347
L 2931 1631
Q 2931 2084 2911 2256
Q 2891 2428 2841 2509
Q 2775 2619 2662 2680
Q 2550 2741 2406 2741
Q 2056 2741 1856 2470
Q 1656 2200 1656 1722
L 1656 0
L 538 0
L 538 3500
L 1656 3500
L 1656 2988
Q 1909 3294 2193 3439
Q 2478 3584 2822 3584
Q 3428 3584 3742 3212
Q 4056 2841 4056 2131
z
" transform="scale(0.015625)"/>
      <path id="DejaVuSans-Bold-69" d="M 538 3500
L 1656 3500
L 1656 0
L 538 0
L 538 3500
z
M 538 4863
L 1656 4863
L 1656 3950
L 538 3950
L 538 4863
z
" transform="scale(0.015625)"/>
      <path id="DejaVuSans-Bold-75" d="M 500 1363
L 500 3500
L 1625 3500
L 1625 3150
Q 1625 2866 1622 2436
Q 1619 2006 1619 1863
Q 1619 1441 1641 1255
Q 1663 1069 1716 984
Q 1784 875 1895 815
Q 2006 756 2150 756
Q 2500 756 2700 1025
Q 2900 1294 2900 1772
L 2900 3500
L 4019 3500
L 4019 0
L 2900 0
L 2900 506
Q 2647 200 2364 54
Q 2081 -91 1741 -91
Q 1134 -91 817 281
Q 500 653 500 1363
z
" transform="scale(0.015625)"/>
      <path id="DejaVuSans-Bold-73" d="M 3272 3391
L 3272 2541
Q 2913 2691 2578 2766
Q 2244 2841 1947 2841
Q 1628 2841 1473 2761
Q 1319 2681 1319 2516
Q 1319 2381 1436 2309
Q 1553 2238 1856 2203
L 2053 2175
Q 2913 2066 3209 1816
Q 3506 1566 3506 1031
Q 3506 472 3093 190
Q 2681 -91 1863 -91
Q 1516 -91 1145 -36
Q 775 19 384 128
L 384 978
Q 719 816 1070 734
Q 1422 653 1784 653
Q 2113 653 2278 743
Q 2444 834 2444 1013
Q 2444 1163 2330 1236
Q 2216 1309 1875 1350
L 1678 1375
Q 931 1469 631 1722
Q 331 1975 331 2491
Q 331 3047 712 3315
Q 1094 3584 1881 3584
Q 2191 3584 2531 3537
Q 2872 3491 3272 3391
z
" transform="scale(0.015625)"/>
      <path id="DejaVuSans-Bold-62" d="M 2400 722
Q 2759 722 2948 984
Q 3138 1247 3138 1747
Q 3138 2247 2948 2509
Q 2759 2772 2400 2772
Q 2041 2772 1848 2508
Q 1656 2244 1656 1747
Q 1656 1250 1848 986
Q 2041 722 2400 722
z
M 1656 2988
Q 1888 3294 2169 3439
Q 2450 3584 2816 3584
Q 3463 3584 3878 3070
Q 4294 2556 4294 1747
Q 4294 938 3878 423
Q 3463 -91 2816 -91
Q 2450 -91 2169 54
Q 1888 200 1656 506
L 1656 0
L 538 0
L 538 4863
L 1656 4863
L 1656 2988
z
" transform="scale(0.015625)"/>
      <path id="DejaVuSans-Bold-72" d="M 3138 2547
Q 2991 2616 2845 2648
Q 2700 2681 2553 2681
Q 2122 2681 1889 2404
Q 1656 2128 1656 1613
L 1656 0
L 538 0
L 538 3500
L 1656 3500
L 1656 2925
Q 1872 3269 2151 3426
Q 2431 3584 2822 3584
Q 2878 3584 2943 3579
Q 3009 3575 3134 3559
L 3138 2547
z
" transform="scale(0.015625)"/>
      <path id="DejaVuSans-Bold-64" d="M 2919 2988
L 2919 4863
L 4044 4863
L 4044 0
L 2919 0
L 2919 506
Q 2688 197 2409 53
Q 2131 -91 1766 -91
Q 1119 -91 703 423
Q 288 938 288 1747
Q 288 2556 703 3070
Q 1119 3584 1766 3584
Q 2128 3584 2408 3439
Q 2688 3294 2919 2988
z
M 2181 722
Q 2541 722 2730 984
Q 2919 1247 2919 1747
Q 2919 2247 2730 2509
Q 2541 2772 2181 2772
Q 1825 2772 1636 2509
Q 1447 2247 1447 1747
Q 1447 1247 1636 984
Q 1825 722 2181 722
z
" transform="scale(0.015625)"/>
     </defs>
     <use xlink:href="#DejaVuSans-Bold-67"/>
     <use xlink:href="#DejaVuSans-Bold-65" transform="translate(71.582031 0)"/>
     <use xlink:href="#DejaVuSans-Bold-6e" transform="translate(139.404297 0)"/>
     <use xlink:href="#DejaVuSans-Bold-69" transform="translate(210.595703 0)"/>
     <use xlink:href="#DejaVuSans-Bold-75" transform="translate(244.873047 0)"/>
     <use xlink:href="#DejaVuSans-Bold-73" transform="translate(316.064453 0)"/>
     <use xlink:href="#DejaVuSans-Bold-62" transform="translate(375.585938 0)"/>
     <use xlink:href="#DejaVuSans-Bold-72" transform="translate(447.167969 0)"/>
     <use xlink:href="#DejaVuSans-Bold-69" transform="translate(496.484375 0)"/>
     <use xlink:href="#DejaVuSans-Bold-64" transform="translate(530.761719 0)"/>
     <use xlink:href="#DejaVuSans-Bold-67" transform="translate(602.34375 0)"/>
     <use xlink:href="#DejaVuSans-Bold-65" transform="translate(673.925781 0)"/>
    </g>
   </g>
   <g id="text_3">
    <!-- Genius Agents -->
    <g style="fill: #ffffff" transform="translate(40.874935 261.927032) scale(0.09 -0.09)">
     <defs>
      <path id="DejaVuSans-Bold-47" d="M 4781 347
Q 4331 128 3847 18
Q 3363 -91 2847 -91
Q 1681 -91 1000 561
Q 319 1213 319 2328
Q 319 3456 1012 4103
Q 1706 4750 2913 4750
Q 3378 4750 3804 4662
Q 4231 4575 4609 4403
L 4609 3438
Q 4219 3659 3833 3768
Q 3447 3878 3059 3878
Q 2341 3878 1952 3476
Q 1563 3075 1563 2328
Q 1563 1588 1938 1184
Q 2313 781 3003 781
Q 3191 781 3352 804
Q 3513 828 3641 878
L 3641 1784
L 2906 1784
L 2906 2591
L 4781 2591
L 4781 347
z
" transform="scale(0.015625)"/>
      <path id="DejaVuSans-Bold-20" transform="scale(0.015625)"/>
      <path id="DejaVuSans-Bold-74" d="M 1759 4494
L 1759 3500
L 2913 3500
L 2913 2700
L 1759 2700
L 1759 1216
Q 1759 972 1856 886
Q 1953 800 2241 800
L 2816 800
L 2816 0
L 1856 0
Q 1194 0 917 276
Q 641 553 641 1216
L 641 2700
L 84 2700
L 84 3500
L 641 3500
L 641 4494
L 1759 4494
z
" transform="scale(0.015625)"/>
     </defs>
     <use xlink:href="#DejaVuSans-Bold-47"/>
     <use xlink:href="#DejaVuSans-Bold-65" transform="translate(82.080078 0)"/>
     <use xlink:href="#DejaVuSans-Bold-6e" transform="translate(149.902344 0)"/>
     <use xlink:href="#DejaVuSans-Bold-69" transform="translate(221.09375 0)"/>
     <use xlink:href="#DejaVuSans-Bold-75" transform="translate(255.371094 0)"/>
     <use xlink:href="#DejaVuSans-Bold-73" transform="translate(326.5625 0)"/>
     <use xlink:href="#DejaVuSans-Bold-20" transform="translate(386.083984 0)"/>
     <use xlink:href="#DejaVuSans-Bold-41" transform="translate(420.898438 0)"/>
     <use xlink:href="#DejaVuSans-Bold-67" transform="translate(498.291016 0)"/>
     <use xlink:href="#DejaVuSans-Bold-65" transform="translate(569.873047 0)"/>
     <use xlink:href="#DejaVuSans-Bold-6e" transform="translate(637.695312 0)"/>
     <use xlink:href="#DejaVuSans-Bold-74" transform="translate(708.886719 0)"/>
     <use xlink:href="#DejaVuSans-Bold-73" transform="translate(756.689453 0)"/>
    </g>
   </g>
   <g id="text_4">
    <!-- ANAC 2010-2019 -->
    <g style="fill: #ffffff" transform="translate(47.562435 287.811578) scale(0.07 -0.07)">
     <defs>
      <path id="DejaVuSans-Oblique-41" d="M 2356 4666
L 3072 4666
L 3938 0
L 3278 0
L 3084 1197
L 984 1197
L 325 0
L -341 0
L 2356 4666
z
M 2584 4044
L 1275 1722
L 2988 1722
L 2584 4044
z
" transform="scale(0.015625)"/>
      <path id="DejaVuSans-Oblique-4e" d="M 1081 4666
L 1931 4666
L 3219 666
L 4000 4666
L 4616 4666
L 3706 0
L 2853 0
L 1569 4025
L 788 0
L 172 0
L 1081 4666
z
" transform="scale(0.015625)"/>
      <path id="DejaVuSans-Oblique-43" d="M 4447 4306
L 4319 3641
Q 4019 3944 3683 4091
Q 3347 4238 2956 4238
Q 2422 4238 2017 3981
Q 1613 3725 1319 3200
Q 1131 2863 1032 2486
Q 934 2109 934 1728
Q 934 1091 1264 756
Q 1594 422 2222 422
Q 2656 422 3056 561
Q 3456 700 3834 978
L 3688 231
Q 3316 72 2936 -9
Q 2556 -91 2175 -91
Q 1278 -91 773 396
Q 269 884 269 1753
Q 269 2309 461 2846
Q 653 3384 1013 3828
Q 1394 4300 1883 4525
Q 2372 4750 3022 4750
Q 3422 4750 3780 4639
Q 4138 4528 4447 4306
z
" transform="scale(0.015625)"/>
      <path id="DejaVuSans-Oblique-20" transform="scale(0.015625)"/>
      <path id="DejaVuSans-Oblique-32" d="M 2950 2253
L 934 525
L 3163 525
L 3053 0
L 25 0
L 128 531
L 2234 2338
Q 2656 2703 2832 2979
Q 3009 3256 3009 3547
Q 3009 3850 2796 4040
Q 2584 4231 2241 4231
Q 1944 4231 1581 4125
Q 1219 4019 806 3816
L 922 4441
Q 1309 4594 1662 4672
Q 2016 4750 2316 4750
Q 2928 4750 3301 4425
Q 3675 4100 3675 3572
Q 3675 3216 3497 2892
Q 3319 2569 2950 2253
z
" transform="scale(0.015625)"/>
      <path id="DejaVuSans-Oblique-30" d="M 2444 4750
Q 3078 4750 3414 4328
Q 3750 3906 3750 3116
Q 3750 2516 3592 1923
Q 3434 1331 3150 863
Q 2859 394 2467 151
Q 2075 -91 1600 -91
Q 988 -91 653 334
Q 319 759 319 1544
Q 319 2138 480 2733
Q 641 3328 928 3794
Q 1216 4263 1602 4506
Q 1988 4750 2444 4750
z
M 2406 4250
Q 2169 4250 1955 4123
Q 1741 3997 1569 3750
Q 1281 3338 1111 2720
Q 941 2103 941 1453
Q 941 938 1123 673
Q 1306 409 1663 409
Q 1913 409 2125 536
Q 2338 663 2509 909
Q 2794 1319 2961 1936
Q 3128 2553 3128 3206
Q 3128 3722 2945 3986
Q 2763 4250 2406 4250
z
" transform="scale(0.015625)"/>
      <path id="DejaVuSans-Oblique-31" d="M 416 531
L 1447 531
L 2144 4122
L 978 3897
L 1088 4441
L 2247 4666
L 2881 4666
L 2075 531
L 3103 531
L 3003 0
L 313 0
L 416 531
z
" transform="scale(0.015625)"/>
      <path id="DejaVuSans-Oblique-2d" d="M 391 2009
L 2075 2009
L 1978 1497
L 288 1497
L 391 2009
z
" transform="scale(0.015625)"/>
      <path id="DejaVuSans-Oblique-39" d="M 281 103
L 397 678
Q 578 559 809 496
Q 1041 434 1306 434
Q 1953 434 2348 843
Q 2744 1253 2938 2119
Q 2706 1853 2401 1714
Q 2097 1575 1747 1575
Q 1178 1575 842 1904
Q 506 2234 506 2791
Q 506 3247 672 3639
Q 838 4031 1159 4325
Q 1378 4531 1665 4640
Q 1953 4750 2278 4750
Q 2925 4750 3300 4339
Q 3675 3928 3675 3219
Q 3675 2559 3501 1943
Q 3328 1328 3022 878
Q 2697 403 2240 156
Q 1784 -91 1228 -91
Q 988 -91 748 -42
Q 509 6 281 103
z
M 1131 2938
Q 1131 2541 1337 2308
Q 1544 2075 1894 2075
Q 2378 2075 2706 2447
Q 3034 2819 3034 3372
Q 3034 3784 2831 4017
Q 2628 4250 2272 4250
Q 1788 4250 1459 3870
Q 1131 3491 1131 2938
z
" transform="scale(0.015625)"/>
     </defs>
     <use xlink:href="#DejaVuSans-Oblique-41"/>
     <use xlink:href="#DejaVuSans-Oblique-4e" transform="translate(68.408203 0)"/>
     <use xlink:href="#DejaVuSans-Oblique-41" transform="translate(143.212891 0)"/>
     <use xlink:href="#DejaVuSans-Oblique-43" transform="translate(211.621094 0)"/>
     <use xlink:href="#DejaVuSans-Oblique-20" transform="translate(281.445312 0)"/>
     <use xlink:href="#DejaVuSans-Oblique-32" transform="translate(313.232422 0)"/>
     <use xlink:href="#DejaVuSans-Oblique-30" transform="translate(376.855469 0)"/>
     <use xlink:href="#DejaVuSans-Oblique-31" transform="translate(440.478516 0)"/>
     <use xlink:href="#DejaVuSans-Oblique-30" transform="translate(504.101562 0)"/>
     <use xlink:href="#DejaVuSans-Oblique-2d" transform="translate(567.724609 0)"/>
     <use xlink:href="#DejaVuSans-Oblique-32" transform="translate(603.808594 0)"/>
     <use xlink:href="#DejaVuSans-Oblique-30" transform="translate(667.431641 0)"/>
     <use xlink:href="#DejaVuSans-Oblique-31" transform="translate(731.054688 0)"/>
     <use xlink:href="#DejaVuSans-Oblique-39" transform="translate(794.677734 0)"/>
    </g>
   </g>
   <g id="text_5">
    <!-- negmas-genius-agents -->
    <g style="fill: #ffffff" transform="translate(195.75235 508.338835) scale(0.09 -0.09)">
     <defs>
      <path id="DejaVuSans-Bold-6d" d="M 3781 2919
Q 3994 3244 4286 3414
Q 4578 3584 4928 3584
Q 5531 3584 5847 3212
Q 6163 2841 6163 2131
L 6163 0
L 5038 0
L 5038 1825
Q 5041 1866 5042 1909
Q 5044 1953 5044 2034
Q 5044 2406 4934 2573
Q 4825 2741 4581 2741
Q 4263 2741 4089 2478
Q 3916 2216 3909 1719
L 3909 0
L 2784 0
L 2784 1825
Q 2784 2406 2684 2573
Q 2584 2741 2328 2741
Q 2006 2741 1831 2477
Q 1656 2213 1656 1722
L 1656 0
L 531 0
L 531 3500
L 1656 3500
L 1656 2988
Q 1863 3284 2130 3434
Q 2397 3584 2719 3584
Q 3081 3584 3359 3409
Q 3638 3234 3781 2919
z
" transform="scale(0.015625)"/>
      <path id="DejaVuSans-Bold-61" d="M 2106 1575
Q 1756 1575 1579 1456
Q 1403 1338 1403 1106
Q 1403 894 1545 773
Q 1688 653 1941 653
Q 2256 653 2472 879
Q 2688 1106 2688 1447
L 2688 1575
L 2106 1575
z
M 3816 1997
L 3816 0
L 2688 0
L 2688 519
Q 2463 200 2181 54
Q 1900 -91 1497 -91
Q 953 -91 614 226
Q 275 544 275 1050
Q 275 1666 698 1953
Q 1122 2241 2028 2241
L 2688 2241
L 2688 2328
Q 2688 2594 2478 2717
Q 2269 2841 1825 2841
Q 1466 2841 1156 2769
Q 847 2697 581 2553
L 581 3406
Q 941 3494 1303 3539
Q 1666 3584 2028 3584
Q 2975 3584 3395 3211
Q 3816 2838 3816 1997
z
" transform="scale(0.015625)"/>
      <path id="DejaVuSans-Bold-2d" d="M 347 2297
L 2309 2297
L 2309 1388
L 347 1388
L 347 2297
z
" transform="scale(0.015625)"/>
     </defs>
     <use xlink:href="#DejaVuSans-Bold-6e"/>
     <use xlink:href="#DejaVuSans-Bold-65" transform="translate(71.191406 0)"/>
     <use xlink:href="#DejaVuSans-Bold-67" transform="translate(139.013672 0)"/>
     <use xlink:href="#DejaVuSans-Bold-6d" transform="translate(210.595703 0)"/>
     <use xlink:href="#DejaVuSans-Bold-61" transform="translate(314.794922 0)"/>
     <use xlink:href="#DejaVuSans-Bold-73" transform="translate(382.275391 0)"/>
     <use xlink:href="#DejaVuSans-Bold-2d" transform="translate(441.796875 0)"/>
     <use xlink:href="#DejaVuSans-Bold-67" transform="translate(483.300781 0)"/>
     <use xlink:href="#DejaVuSans-Bold-65" transform="translate(554.882812 0)"/>
     <use xlink:href="#DejaVuSans-Bold-6e" transform="translate(622.705078 0)"/>
     <use xlink:href="#DejaVuSans-Bold-69" transform="translate(693.896484 0)"/>
     <use xlink:href="#DejaVuSans-Bold-75" transform="translate(728.173828 0)"/>
     <use xlink:href="#DejaVuSans-Bold-73" transform="translate(799.365234 0)"/>
     <use xlink:href="#DejaVuSans-Bold-2d" transform="translate(858.886719 0)"/>
     <use xlink:href="#DejaVuSans-Bold-61" transform="translate(900.390625 0)"/>
     <use xlink:href="#DejaVuSans-Bold-67" transform="translate(967.871094 0)"/>
     <use xlink:href="#DejaVuSans-Bold-65" transform="translate(1039.453125 0)"/>
     <use xlink:href="#DejaVuSans-Bold-6e" transform="translate(1107.275391 0)"/>
     <use xlink:href="#DejaVuSans-Bold-74" transform="translate(1178.466797 0)"/>
     <use xlink:href="#DejaVuSans-Bold-73" transform="translate(1226.269531 0)"/>
    </g>
   </g>
   <g id="text_6">
    <!-- Genius Agents -->
    <g style="fill: #ffffff" transform="translate(40.874935 496.60494) scale(0.09 -0.09)">
     <use xlink:href="#DejaVuSans-Bold-47"/>
     <use xlink:href="#DejaVuSans-Bold-65" transform="translate(82.080078 0)"/>
     <use xlink:href="#DejaVuSans-Bold-6e" transform="translate(149.902344 0)"/>
     <use xlink:href="#DejaVuSans-Bold-69" transform="translate(221.09375 0)"/>
     <use xlink:href="#DejaVuSans-Bold-75" transform="translate(255.371094 0)"/>
     <use xlink:href="#DejaVuSans-Bold-73" transform="translate(326.5625 0)"/>
     <use xlink:href="#DejaVuSans-Bold-20" transform="translate(386.083984 0)"/>
     <use xlink:href="#DejaVuSans-Bold-41" transform="translate(420.898438 0)"/>
     <use xlink:href="#DejaVuSans-Bold-67" transform="translate(498.291016 0)"/>
     <use xlink:href="#DejaVuSans-Bold-65" transform="translate(569.873047 0)"/>
     <use xlink:href="#DejaVuSans-Bold-6e" transform="translate(637.695312 0)"/>
     <use xlink:href="#DejaVuSans-Bold-74" transform="translate(708.886719 0)"/>
     <use xlink:href="#DejaVuSans-Bold-73" transform="translate(756.689453 0)"/>
    </g>
   </g>
   <g id="text_7">
    <!-- ANAC 2010-2019 -->
    <g style="fill: #ffffff" transform="translate(47.562435 518.570251) scale(0.07 -0.07)">
     <use xlink:href="#DejaVuSans-Oblique-41"/>
     <use xlink:href="#DejaVuSans-Oblique-4e" transform="translate(68.408203 0)"/>
     <use xlink:href="#DejaVuSans-Oblique-41" transform="translate(143.212891 0)"/>
     <use xlink:href="#DejaVuSans-Oblique-43" transform="translate(211.621094 0)"/>
     <use xlink:href="#DejaVuSans-Oblique-20" transform="translate(281.445312 0)"/>
     <use xlink:href="#DejaVuSans-Oblique-32" transform="translate(313.232422 0)"/>
     <use xlink:href="#DejaVuSans-Oblique-30" transform="translate(376.855469 0)"/>
     <use xlink:href="#DejaVuSans-Oblique-31" transform="translate(440.478516 0)"/>
     <use xlink:href="#DejaVuSans-Oblique-30" transform="translate(504.101562 0)"/>
     <use xlink:href="#DejaVuSans-Oblique-2d" transform="translate(567.724609 0)"/>
     <use xlink:href="#DejaVuSans-Oblique-32" transform="translate(603.808594 0)"/>
     <use xlink:href="#DejaVuSans-Oblique-30" transform="translate(667.431641 0)"/>
     <use xlink:href="#DejaVuSans-Oblique-31" transform="translate(731.054688 0)"/>
     <use xlink:href="#DejaVuSans-Oblique-39" transform="translate(794.677734 0)"/>
    </g>
    <!-- (Python) -->
    <g style="fill: #ffffff" transform="translate(62.740404 526.40872) scale(0.07 -0.07)">
     <defs>
      <path id="DejaVuSans-Oblique-28" d="M 2731 4856
Q 1903 3822 1495 2892
Q 1088 1963 1088 1100
Q 1088 606 1206 120
Q 1325 -366 1563 -844
L 1063 -844
Q 775 -306 634 201
Q 494 709 494 1197
Q 494 2125 923 3036
Q 1353 3947 2222 4856
L 2731 4856
z
" transform="scale(0.015625)"/>
      <path id="DejaVuSans-Oblique-50" d="M 1081 4666
L 2541 4666
Q 3178 4666 3512 4369
Q 3847 4072 3847 3500
Q 3847 2731 3353 2303
Q 2859 1875 1966 1875
L 1172 1875
L 806 0
L 172 0
L 1081 4666
z
M 1613 4147
L 1275 2394
L 2069 2394
Q 2606 2394 2893 2669
Q 3181 2944 3181 3456
Q 3181 3784 2986 3965
Q 2791 4147 2438 4147
L 1613 4147
z
" transform="scale(0.015625)"/>
      <path id="DejaVuSans-Oblique-79" d="M 1588 -325
Q 1188 -997 936 -1164
Q 684 -1331 294 -1331
L -159 -1331
L -63 -850
L 269 -850
Q 509 -850 678 -719
Q 847 -588 1056 -206
L 1234 128
L 459 3500
L 1069 3500
L 1650 819
L 3256 3500
L 3859 3500
L 1588 -325
z
" transform="scale(0.015625)"/>
      <path id="DejaVuSans-Oblique-74" d="M 2706 3500
L 2619 3053
L 1472 3053
L 1100 1153
Q 1081 1047 1072 975
Q 1063 903 1063 863
Q 1063 663 1183 572
Q 1303 481 1569 481
L 2150 481
L 2053 0
L 1503 0
Q 991 0 739 200
Q 488 400 488 806
Q 488 878 497 964
Q 506 1050 525 1153
L 897 3053
L 409 3053
L 500 3500
L 978 3500
L 1172 4494
L 1747 4494
L 1556 3500
L 2706 3500
z
" transform="scale(0.015625)"/>
      <path id="DejaVuSans-Oblique-68" d="M 3566 2113
L 3156 0
L 2578 0
L 2988 2091
Q 3016 2238 3031 2350
Q 3047 2463 3047 2528
Q 3047 2791 2881 2937
Q 2716 3084 2419 3084
Q 1956 3084 1617 2771
Q 1278 2459 1178 1941
L 800 0
L 225 0
L 1172 4863
L 1747 4863
L 1375 2950
Q 1594 3244 1934 3414
Q 2275 3584 2650 3584
Q 3113 3584 3367 3334
Q 3622 3084 3622 2631
Q 3622 2519 3608 2391
Q 3594 2263 3566 2113
z
" transform="scale(0.015625)"/>
      <path id="DejaVuSans-Oblique-6f" d="M 1625 -91
Q 1009 -91 651 289
Q 294 669 294 1325
Q 294 1706 417 2101
Q 541 2497 738 2766
Q 1047 3184 1428 3384
Q 1809 3584 2291 3584
Q 2888 3584 3255 3212
Q 3622 2841 3622 2241
Q 3622 1825 3500 1412
Q 3378 1000 3181 728
Q 2875 309 2494 109
Q 2113 -91 1625 -91
z
M 891 1344
Q 891 869 1089 633
Q 1288 397 1691 397
Q 2269 397 2648 901
Q 3028 1406 3028 2181
Q 3028 2634 2825 2865
Q 2622 3097 2228 3097
Q 1903 3097 1650 2945
Q 1397 2794 1197 2484
Q 1050 2253 970 1956
Q 891 1659 891 1344
z
" transform="scale(0.015625)"/>
      <path id="DejaVuSans-Oblique-6e" d="M 3566 2113
L 3156 0
L 2578 0
L 2988 2091
Q 3016 2238 3031 2350
Q 3047 2463 3047 2528
Q 3047 2791 2881 2937
Q 2716 3084 2419 3084
Q 1956 3084 1622 2776
Q 1288 2469 1184 1941
L 800 0
L 225 0
L 903 3500
L 1478 3500
L 1363 2950
Q 1603 3253 1940 3418
Q 2278 3584 2650 3584
Q 3113 3584 3367 3334
Q 3622 3084 3622 2631
Q 3622 2519 3608 2391
Q 3594 2263 3566 2113
z
" transform="scale(0.015625)"/>
      <path id="DejaVuSans-Oblique-29" d="M -397 -844
Q 434 191 840 1120
Q 1247 2050 1247 2913
Q 1247 3406 1130 3892
Q 1013 4378 775 4856
L 1275 4856
Q 1563 4316 1703 3812
Q 1844 3309 1844 2822
Q 1844 1891 1411 973
Q 978 56 116 -844
L -397 -844
z
" transform="scale(0.015625)"/>
     </defs>
     <use xlink:href="#DejaVuSans-Oblique-28"/>
     <use xlink:href="#DejaVuSans-Oblique-50" transform="translate(39.013672 0)"/>
     <use xlink:href="#DejaVuSans-Oblique-79" transform="translate(99.316406 0)"/>
     <use xlink:href="#DejaVuSans-Oblique-74" transform="translate(158.496094 0)"/>
     <use xlink:href="#DejaVuSans-Oblique-68" transform="translate(197.705078 0)"/>
     <use xlink:href="#DejaVuSans-Oblique-6f" transform="translate(261.083984 0)"/>
     <use xlink:href="#DejaVuSans-Oblique-6e" transform="translate(322.265625 0)"/>
     <use xlink:href="#DejaVuSans-Oblique-29" transform="translate(385.644531 0)"/>
    </g>
   </g>
   <g id="text_8">
    <!-- negmas-geniusweb-bridge -->
    <g style="fill: #ffffff" transform="translate(632.075062 214.99145) scale(0.09 -0.09)">
     <defs>
      <path id="DejaVuSans-Bold-77" d="M 225 3500
L 1313 3500
L 1900 1088
L 2491 3500
L 3425 3500
L 4013 1113
L 4603 3500
L 5691 3500
L 4769 0
L 3547 0
L 2956 2406
L 2369 0
L 1147 0
L 225 3500
z
" transform="scale(0.015625)"/>
     </defs>
     <use xlink:href="#DejaVuSans-Bold-6e"/>
     <use xlink:href="#DejaVuSans-Bold-65" transform="translate(71.191406 0)"/>
     <use xlink:href="#DejaVuSans-Bold-67" transform="translate(139.013672 0)"/>
     <use xlink:href="#DejaVuSans-Bold-6d" transform="translate(210.595703 0)"/>
     <use xlink:href="#DejaVuSans-Bold-61" transform="translate(314.794922 0)"/>
     <use xlink:href="#DejaVuSans-Bold-73" transform="translate(382.275391 0)"/>
     <use xlink:href="#DejaVuSans-Bold-2d" transform="translate(441.796875 0)"/>
     <use xlink:href="#DejaVuSans-Bold-67" transform="translate(483.300781 0)"/>
     <use xlink:href="#DejaVuSans-Bold-65" transform="translate(554.882812 0)"/>
     <use xlink:href="#DejaVuSans-Bold-6e" transform="translate(622.705078 0)"/>
     <use xlink:href="#DejaVuSans-Bold-69" transform="translate(693.896484 0)"/>
     <use xlink:href="#DejaVuSans-Bold-75" transform="translate(728.173828 0)"/>
     <use xlink:href="#DejaVuSans-Bold-73" transform="translate(799.365234 0)"/>
     <use xlink:href="#DejaVuSans-Bold-77" transform="translate(858.886719 0)"/>
     <use xlink:href="#DejaVuSans-Bold-65" transform="translate(951.269531 0)"/>
     <use xlink:href="#DejaVuSans-Bold-62" transform="translate(1019.091797 0)"/>
     <use xlink:href="#DejaVuSans-Bold-2d" transform="translate(1090.673828 0)"/>
     <use xlink:href="#DejaVuSans-Bold-62" transform="translate(1132.177734 0)"/>
     <use xlink:href="#DejaVuSans-Bold-72" transform="translate(1203.759766 0)"/>
     <use xlink:href="#DejaVuSans-Bold-69" transform="translate(1253.076172 0)"/>
     <use xlink:href="#DejaVuSans-Bold-64" transform="translate(1287.353516 0)"/>
     <use xlink:href="#DejaVuSans-Bold-67" transform="translate(1358.935547 0)"/>
     <use xlink:href="#DejaVuSans-Bold-65" transform="translate(1430.517578 0)"/>
    </g>
   </g>
   <g id="text_9">
    <!-- GeniusWeb Agents -->
    <g style="fill: #ffffff" transform="translate(839.440201 203.257555) scale(0.09 -0.09)">
     <defs>
      <path id="DejaVuSans-Bold-57" d="M 191 4666
L 1344 4666
L 2150 1275
L 2950 4666
L 4109 4666
L 4909 1275
L 5716 4666
L 6859 4666
L 5759 0
L 4372 0
L 3525 3547
L 2688 0
L 1300 0
L 191 4666
z
" transform="scale(0.015625)"/>
     </defs>
     <use xlink:href="#DejaVuSans-Bold-47"/>
     <use xlink:href="#DejaVuSans-Bold-65" transform="translate(82.080078 0)"/>
     <use xlink:href="#DejaVuSans-Bold-6e" transform="translate(149.902344 0)"/>
     <use xlink:href="#DejaVuSans-Bold-69" transform="translate(221.09375 0)"/>
     <use xlink:href="#DejaVuSans-Bold-75" transform="translate(255.371094 0)"/>
     <use xlink:href="#DejaVuSans-Bold-73" transform="translate(326.5625 0)"/>
     <use xlink:href="#DejaVuSans-Bold-57" transform="translate(386.083984 0)"/>
     <use xlink:href="#DejaVuSans-Bold-65" transform="translate(492.761719 0)"/>
     <use xlink:href="#DejaVuSans-Bold-62" transform="translate(560.583984 0)"/>
     <use xlink:href="#DejaVuSans-Bold-20" transform="translate(632.166016 0)"/>
     <use xlink:href="#DejaVuSans-Bold-41" transform="translate(666.980469 0)"/>
     <use xlink:href="#DejaVuSans-Bold-67" transform="translate(744.373047 0)"/>
     <use xlink:href="#DejaVuSans-Bold-65" transform="translate(815.955078 0)"/>
     <use xlink:href="#DejaVuSans-Bold-6e" transform="translate(883.777344 0)"/>
     <use xlink:href="#DejaVuSans-Bold-74" transform="translate(954.96875 0)"/>
     <use xlink:href="#DejaVuSans-Bold-73" transform="translate(1002.771484 0)"/>
    </g>
   </g>
   <g id="text_10">
    <!-- ANAC 2020-2023 -->
    <g style="fill: #ffffff" transform="translate(857.201216 225.222867) scale(0.07 -0.07)">
     <defs>
      <path id="DejaVuSans-Oblique-33" d="M 1013 4550
Q 1356 4650 1679 4700
Q 2003 4750 2316 4750
Q 2934 4750 3296 4475
Q 3659 4200 3659 3738
Q 3659 3284 3373 2959
Q 3088 2634 2584 2516
Q 2978 2403 3162 2165
Q 3347 1928 3347 1538
Q 3347 1163 3167 834
Q 2988 506 2650 269
Q 2394 88 2037 -1
Q 1681 -91 1216 -91
Q 922 -91 622 -33
Q 322 25 13 141
L 128 738
Q 422 575 720 495
Q 1019 416 1331 416
Q 1947 416 2330 733
Q 2713 1050 2713 1556
Q 2713 1881 2469 2057
Q 2225 2234 1772 2234
L 1228 2234
L 1325 2747
L 1900 2747
Q 2419 2747 2717 2984
Q 3016 3222 3016 3628
Q 3016 3922 2797 4083
Q 2578 4244 2181 4244
Q 1881 4244 1567 4180
Q 1253 4116 916 3988
L 1013 4550
z
" transform="scale(0.015625)"/>
     </defs>
     <use xlink:href="#DejaVuSans-Oblique-41"/>
     <use xlink:href="#DejaVuSans-Oblique-4e" transform="translate(68.408203 0)"/>
     <use xlink:href="#DejaVuSans-Oblique-41" transform="translate(143.212891 0)"/>
     <use xlink:href="#DejaVuSans-Oblique-43" transform="translate(211.621094 0)"/>
     <use xlink:href="#DejaVuSans-Oblique-20" transform="translate(281.445312 0)"/>
     <use xlink:href="#DejaVuSans-Oblique-32" transform="translate(313.232422 0)"/>
     <use xlink:href="#DejaVuSans-Oblique-30" transform="translate(376.855469 0)"/>
     <use xlink:href="#DejaVuSans-Oblique-32" transform="translate(440.478516 0)"/>
     <use xlink:href="#DejaVuSans-Oblique-30" transform="translate(504.101562 0)"/>
     <use xlink:href="#DejaVuSans-Oblique-2d" transform="translate(567.724609 0)"/>
     <use xlink:href="#DejaVuSans-Oblique-32" transform="translate(603.808594 0)"/>
     <use xlink:href="#DejaVuSans-Oblique-30" transform="translate(667.431641 0)"/>
     <use xlink:href="#DejaVuSans-Oblique-32" transform="translate(731.054688 0)"/>
     <use xlink:href="#DejaVuSans-Oblique-33" transform="translate(794.677734 0)"/>
    </g>
    <!-- (Python) -->
    <g style="fill: #ffffff" transform="translate(872.379185 233.061335) scale(0.07 -0.07)">
     <use xlink:href="#DejaVuSans-Oblique-28"/>
     <use xlink:href="#DejaVuSans-Oblique-50" transform="translate(39.013672 0)"/>
     <use xlink:href="#DejaVuSans-Oblique-79" transform="translate(99.316406 0)"/>
     <use xlink:href="#DejaVuSans-Oblique-74" transform="translate(158.496094 0)"/>
     <use xlink:href="#DejaVuSans-Oblique-68" transform="translate(197.705078 0)"/>
     <use xlink:href="#DejaVuSans-Oblique-6f" transform="translate(261.083984 0)"/>
     <use xlink:href="#DejaVuSans-Oblique-6e" transform="translate(322.265625 0)"/>
     <use xlink:href="#DejaVuSans-Oblique-29" transform="translate(385.644531 0)"/>
    </g>
   </g>
   <g id="text_11">
    <!-- anl -->
    <g style="fill: #ffffff" transform="translate(671.521797 391.86285) scale(0.12 -0.12)">
     <defs>
      <path id="DejaVuSans-Bold-6c" d="M 538 4863
L 1656 4863
L 1656 0
L 538 0
L 538 4863
z
" transform="scale(0.015625)"/>
     </defs>
     <use xlink:href="#DejaVuSans-Bold-61"/>
     <use xlink:href="#DejaVuSans-Bold-6e" transform="translate(67.480469 0)"/>
     <use xlink:href="#DejaVuSans-Bold-6c" transform="translate(138.671875 0)"/>
    </g>
   </g>
   <g id="text_12">
    <!-- anl-agents -->
    <g style="fill: #ffffff" transform="translate(830.914447 379.265986) scale(0.09 -0.09)">
     <use xlink:href="#DejaVuSans-Bold-61"/>
     <use xlink:href="#DejaVuSans-Bold-6e" transform="translate(67.480469 0)"/>
     <use xlink:href="#DejaVuSans-Bold-6c" transform="translate(138.671875 0)"/>
     <use xlink:href="#DejaVuSans-Bold-2d" transform="translate(172.949219 0)"/>
     <use xlink:href="#DejaVuSans-Bold-61" transform="translate(214.453125 0)"/>
     <use xlink:href="#DejaVuSans-Bold-67" transform="translate(281.933594 0)"/>
     <use xlink:href="#DejaVuSans-Bold-65" transform="translate(353.515625 0)"/>
     <use xlink:href="#DejaVuSans-Bold-6e" transform="translate(421.337891 0)"/>
     <use xlink:href="#DejaVuSans-Bold-74" transform="translate(492.529297 0)"/>
     <use xlink:href="#DejaVuSans-Bold-73" transform="translate(540.332031 0)"/>
    </g>
   </g>
   <g id="text_13">
    <!-- ANL 2024-2025 -->
    <g style="fill: #ffffff" transform="translate(830.754525 405.150532) scale(0.07 -0.07)">
     <defs>
      <path id="DejaVuSans-Oblique-4c" d="M 1075 4666
L 1709 4666
L 909 525
L 3181 525
L 3078 0
L 172 0
L 1075 4666
z
" transform="scale(0.015625)"/>
      <path id="DejaVuSans-Oblique-34" d="M 2753 4666
L 3547 4666
L 2950 1625
L 3616 1625
L 3513 1100
L 2847 1100
L 2638 0
L 2009 0
L 2222 1100
L 116 1100
L 238 1709
L 2753 4666
z
M 2809 4116
L 728 1625
L 2322 1625
L 2809 4116
z
" transform="scale(0.015625)"/>
      <path id="DejaVuSans-Oblique-35" d="M 3719 4666
L 3622 4141
L 1691 4141
L 1466 2988
Q 1609 3034 1757 3056
Q 1906 3078 2059 3078
Q 2706 3078 3081 2731
Q 3456 2384 3456 1791
Q 3456 1375 3264 994
Q 3072 613 2719 325
Q 2469 125 2108 17
Q 1747 -91 1319 -91
Q 1038 -91 744 -41
Q 450 9 128 109
L 244 697
Q 531 556 820 486
Q 1109 416 1403 416
Q 2013 416 2411 781
Q 2809 1147 2809 1697
Q 2809 2103 2548 2328
Q 2288 2553 1819 2553
Q 1572 2553 1305 2495
Q 1038 2438 756 2322
L 1209 4666
L 3719 4666
z
" transform="scale(0.015625)"/>
     </defs>
     <use xlink:href="#DejaVuSans-Oblique-41"/>
     <use xlink:href="#DejaVuSans-Oblique-4e" transform="translate(68.408203 0)"/>
     <use xlink:href="#DejaVuSans-Oblique-4c" transform="translate(143.212891 0)"/>
     <use xlink:href="#DejaVuSans-Oblique-20" transform="translate(198.925781 0)"/>
     <use xlink:href="#DejaVuSans-Oblique-32" transform="translate(230.712891 0)"/>
     <use xlink:href="#DejaVuSans-Oblique-30" transform="translate(294.335938 0)"/>
     <use xlink:href="#DejaVuSans-Oblique-32" transform="translate(357.958984 0)"/>
     <use xlink:href="#DejaVuSans-Oblique-34" transform="translate(421.582031 0)"/>
     <use xlink:href="#DejaVuSans-Oblique-2d" transform="translate(485.205078 0)"/>
     <use xlink:href="#DejaVuSans-Oblique-32" transform="translate(521.289062 0)"/>
     <use xlink:href="#DejaVuSans-Oblique-30" transform="translate(584.912109 0)"/>
     <use xlink:href="#DejaVuSans-Oblique-32" transform="translate(648.535156 0)"/>
     <use xlink:href="#DejaVuSans-Oblique-35" transform="translate(712.158203 0)"/>
    </g>
   </g>
   <g id="text_14">
    <!-- scml -->
    <g style="fill: #ffffff" transform="translate(461.11894 597.206019) scale(0.12 -0.12)">
     <defs>
      <path id="DejaVuSans-Bold-63" d="M 3366 3391
L 3366 2478
Q 3138 2634 2908 2709
Q 2678 2784 2431 2784
Q 1963 2784 1702 2511
Q 1441 2238 1441 1747
Q 1441 1256 1702 982
Q 1963 709 2431 709
Q 2694 709 2930 787
Q 3166 866 3366 1019
L 3366 103
Q 3103 6 2833 -42
Q 2563 -91 2291 -91
Q 1344 -91 809 395
Q 275 881 275 1747
Q 275 2613 809 3098
Q 1344 3584 2291 3584
Q 2566 3584 2833 3536
Q 3100 3488 3366 3391
z
" transform="scale(0.015625)"/>
     </defs>
     <use xlink:href="#DejaVuSans-Bold-73"/>
     <use xlink:href="#DejaVuSans-Bold-63" transform="translate(59.521484 0)"/>
     <use xlink:href="#DejaVuSans-Bold-6d" transform="translate(118.798828 0)"/>
     <use xlink:href="#DejaVuSans-Bold-6c" transform="translate(222.998047 0)"/>
    </g>
   </g>
   <g id="text_15">
    <!-- scml-agents -->
    <g style="fill: #ffffff" transform="translate(445.768081 701.948109) scale(0.09 -0.09)">
     <use xlink:href="#DejaVuSans-Bold-73"/>
     <use xlink:href="#DejaVuSans-Bold-63" transform="translate(59.521484 0)"/>
     <use xlink:href="#DejaVuSans-Bold-6d" transform="translate(118.798828 0)"/>
     <use xlink:href="#DejaVuSans-Bold-6c" transform="translate(222.998047 0)"/>
     <use xlink:href="#DejaVuSans-Bold-2d" transform="translate(257.275391 0)"/>
     <use xlink:href="#DejaVuSans-Bold-61" transform="translate(298.779297 0)"/>
     <use xlink:href="#DejaVuSans-Bold-67" transform="translate(366.259766 0)"/>
     <use xlink:href="#DejaVuSans-Bold-65" transform="translate(437.841797 0)"/>
     <use xlink:href="#DejaVuSans-Bold-6e" transform="translate(505.664062 0)"/>
     <use xlink:href="#DejaVuSans-Bold-74" transform="translate(576.855469 0)"/>
     <use xlink:href="#DejaVuSans-Bold-73" transform="translate(624.658203 0)"/>
    </g>
   </g>
   <g id="text_16">
    <!-- SCML 2019-2025 -->
    <g style="fill: #ffffff" transform="translate(446.7298 727.832655) scale(0.07 -0.07)">
     <defs>
      <path id="DejaVuSans-Oblique-53" d="M 3859 4513
L 3738 3897
Q 3422 4066 3111 4152
Q 2800 4238 2509 4238
Q 1944 4238 1609 3991
Q 1275 3744 1275 3334
Q 1275 3109 1398 2989
Q 1522 2869 2034 2731
L 2413 2638
Q 3053 2472 3303 2217
Q 3553 1963 3553 1503
Q 3553 797 2998 353
Q 2444 -91 1538 -91
Q 1166 -91 791 -17
Q 416 56 38 206
L 166 856
Q 513 641 861 531
Q 1209 422 1556 422
Q 2147 422 2503 684
Q 2859 947 2859 1369
Q 2859 1650 2717 1795
Q 2575 1941 2106 2059
L 1728 2156
Q 1081 2325 845 2545
Q 609 2766 609 3163
Q 609 3859 1145 4304
Q 1681 4750 2541 4750
Q 2875 4750 3203 4690
Q 3531 4631 3859 4513
z
" transform="scale(0.015625)"/>
      <path id="DejaVuSans-Oblique-4d" d="M 1081 4666
L 2028 4666
L 2572 1522
L 4378 4666
L 5350 4666
L 4441 0
L 3828 0
L 4622 4091
L 2791 897
L 2175 897
L 1581 4103
L 788 0
L 172 0
L 1081 4666
z
" transform="scale(0.015625)"/>
     </defs>
     <use xlink:href="#DejaVuSans-Oblique-53"/>
     <use xlink:href="#DejaVuSans-Oblique-43" transform="translate(63.476562 0)"/>
     <use xlink:href="#DejaVuSans-Oblique-4d" transform="translate(133.300781 0)"/>
     <use xlink:href="#DejaVuSans-Oblique-4c" transform="translate(219.580078 0)"/>
     <use xlink:href="#DejaVuSans-Oblique-20" transform="translate(275.292969 0)"/>
     <use xlink:href="#DejaVuSans-Oblique-32" transform="translate(307.080078 0)"/>
     <use xlink:href="#DejaVuSans-Oblique-30" transform="translate(370.703125 0)"/>
     <use xlink:href="#DejaVuSans-Oblique-31" transform="translate(434.326172 0)"/>
     <use xlink:href="#DejaVuSans-Oblique-39" transform="translate(497.949219 0)"/>
     <use xlink:href="#DejaVuSans-Oblique-2d" transform="translate(561.572266 0)"/>
     <use xlink:href="#DejaVuSans-Oblique-32" transform="translate(597.65625 0)"/>
     <use xlink:href="#DejaVuSans-Oblique-30" transform="translate(661.279297 0)"/>
     <use xlink:href="#DejaVuSans-Oblique-32" transform="translate(724.902344 0)"/>
     <use xlink:href="#DejaVuSans-Oblique-35" transform="translate(788.525391 0)"/>
    </g>
   </g>
   <g id="text_17">
    <!-- negmas-app -->
    <g style="fill: #ffffff" transform="translate(438.389253 156.823067) scale(0.11 -0.11)">
     <defs>
      <path id="DejaVuSans-Bold-70" d="M 1656 506
L 1656 -1331
L 538 -1331
L 538 3500
L 1656 3500
L 1656 2988
Q 1888 3294 2169 3439
Q 2450 3584 2816 3584
Q 3463 3584 3878 3070
Q 4294 2556 4294 1747
Q 4294 938 3878 423
Q 3463 -91 2816 -91
Q 2450 -91 2169 54
Q 1888 200 1656 506
z
M 2400 2772
Q 2041 2772 1848 2508
Q 1656 2244 1656 1747
Q 1656 1250 1848 986
Q 2041 722 2400 722
Q 2759 722 2948 984
Q 3138 1247 3138 1747
Q 3138 2247 2948 2509
Q 2759 2772 2400 2772
z
" transform="scale(0.015625)"/>
     </defs>
     <use xlink:href="#DejaVuSans-Bold-6e"/>
     <use xlink:href="#DejaVuSans-Bold-65" transform="translate(71.191406 0)"/>
     <use xlink:href="#DejaVuSans-Bold-67" transform="translate(139.013672 0)"/>
     <use xlink:href="#DejaVuSans-Bold-6d" transform="translate(210.595703 0)"/>
     <use xlink:href="#DejaVuSans-Bold-61" transform="translate(314.794922 0)"/>
     <use xlink:href="#DejaVuSans-Bold-73" transform="translate(382.275391 0)"/>
     <use xlink:href="#DejaVuSans-Bold-2d" transform="translate(441.796875 0)"/>
     <use xlink:href="#DejaVuSans-Bold-61" transform="translate(483.300781 0)"/>
     <use xlink:href="#DejaVuSans-Bold-70" transform="translate(550.78125 0)"/>
     <use xlink:href="#DejaVuSans-Bold-70" transform="translate(622.363281 0)"/>
    </g>
   </g>
   <g id="text_18">
    <!-- GUI for Negotiations -->
    <g style="fill: #333333" transform="translate(430.918784 198.253696) scale(0.09 -0.09)">
     <defs>
      <path id="DejaVuSans-47" d="M 3809 666
L 3809 1919
L 2778 1919
L 2778 2438
L 4434 2438
L 4434 434
Q 4069 175 3628 42
Q 3188 -91 2688 -91
Q 1594 -91 976 548
Q 359 1188 359 2328
Q 359 3472 976 4111
Q 1594 4750 2688 4750
Q 3144 4750 3555 4637
Q 3966 4525 4313 4306
L 4313 3634
Q 3963 3931 3569 4081
Q 3175 4231 2741 4231
Q 1884 4231 1454 3753
Q 1025 3275 1025 2328
Q 1025 1384 1454 906
Q 1884 428 2741 428
Q 3075 428 3337 486
Q 3600 544 3809 666
z
" transform="scale(0.015625)"/>
      <path id="DejaVuSans-55" d="M 556 4666
L 1191 4666
L 1191 1831
Q 1191 1081 1462 751
Q 1734 422 2344 422
Q 2950 422 3222 751
Q 3494 1081 3494 1831
L 3494 4666
L 4128 4666
L 4128 1753
Q 4128 841 3676 375
Q 3225 -91 2344 -91
Q 1459 -91 1007 375
Q 556 841 556 1753
L 556 4666
z
" transform="scale(0.015625)"/>
      <path id="DejaVuSans-49" d="M 628 4666
L 1259 4666
L 1259 0
L 628 0
L 628 4666
z
" transform="scale(0.015625)"/>
      <path id="DejaVuSans-20" transform="scale(0.015625)"/>
      <path id="DejaVuSans-66" d="M 2375 4863
L 2375 4384
L 1825 4384
Q 1516 4384 1395 4259
Q 1275 4134 1275 3809
L 1275 3500
L 2222 3500
L 2222 3053
L 1275 3053
L 1275 0
L 697 0
L 697 3053
L 147 3053
L 147 3500
L 697 3500
L 697 3744
Q 697 4328 969 4595
Q 1241 4863 1831 4863
L 2375 4863
z
" transform="scale(0.015625)"/>
      <path id="DejaVuSans-6f" d="M 1959 3097
Q 1497 3097 1228 2736
Q 959 2375 959 1747
Q 959 1119 1226 758
Q 1494 397 1959 397
Q 2419 397 2687 759
Q 2956 1122 2956 1747
Q 2956 2369 2687 2733
Q 2419 3097 1959 3097
z
M 1959 3584
Q 2709 3584 3137 3096
Q 3566 2609 3566 1747
Q 3566 888 3137 398
Q 2709 -91 1959 -91
Q 1206 -91 779 398
Q 353 888 353 1747
Q 353 2609 779 3096
Q 1206 3584 1959 3584
z
" transform="scale(0.015625)"/>
      <path id="DejaVuSans-72" d="M 2631 2963
Q 2534 3019 2420 3045
Q 2306 3072 2169 3072
Q 1681 3072 1420 2755
Q 1159 2438 1159 1844
L 1159 0
L 581 0
L 581 3500
L 1159 3500
L 1159 2956
Q 1341 3275 1631 3429
Q 1922 3584 2338 3584
Q 2397 3584 2469 3576
Q 2541 3569 2628 3553
L 2631 2963
z
" transform="scale(0.015625)"/>
      <path id="DejaVuSans-4e" d="M 628 4666
L 1478 4666
L 3547 763
L 3547 4666
L 4159 4666
L 4159 0
L 3309 0
L 1241 3903
L 1241 0
L 628 0
L 628 4666
z
" transform="scale(0.015625)"/>
      <path id="DejaVuSans-65" d="M 3597 1894
L 3597 1613
L 953 1613
Q 991 1019 1311 708
Q 1631 397 2203 397
Q 2534 397 2845 478
Q 3156 559 3463 722
L 3463 178
Q 3153 47 2828 -22
Q 2503 -91 2169 -91
Q 1331 -91 842 396
Q 353 884 353 1716
Q 353 2575 817 3079
Q 1281 3584 2069 3584
Q 2775 3584 3186 3129
Q 3597 2675 3597 1894
z
M 3022 2063
Q 3016 2534 2758 2815
Q 2500 3097 2075 3097
Q 1594 3097 1305 2825
Q 1016 2553 972 2059
L 3022 2063
z
" transform="scale(0.015625)"/>
      <path id="DejaVuSans-67" d="M 2906 1791
Q 2906 2416 2648 2759
Q 2391 3103 1925 3103
Q 1463 3103 1205 2759
Q 947 2416 947 1791
Q 947 1169 1205 825
Q 1463 481 1925 481
Q 2391 481 2648 825
Q 2906 1169 2906 1791
z
M 3481 434
Q 3481 -459 3084 -895
Q 2688 -1331 1869 -1331
Q 1566 -1331 1297 -1286
Q 1028 -1241 775 -1147
L 775 -588
Q 1028 -725 1275 -790
Q 1522 -856 1778 -856
Q 2344 -856 2625 -561
Q 2906 -266 2906 331
L 2906 616
Q 2728 306 2450 153
Q 2172 0 1784 0
Q 1141 0 747 490
Q 353 981 353 1791
Q 353 2603 747 3093
Q 1141 3584 1784 3584
Q 2172 3584 2450 3431
Q 2728 3278 2906 2969
L 2906 3500
L 3481 3500
L 3481 434
z
" transform="scale(0.015625)"/>
      <path id="DejaVuSans-74" d="M 1172 4494
L 1172 3500
L 2356 3500
L 2356 3053
L 1172 3053
L 1172 1153
Q 1172 725 1289 603
Q 1406 481 1766 481
L 2356 481
L 2356 0
L 1766 0
Q 1100 0 847 248
Q 594 497 594 1153
L 594 3053
L 172 3053
L 172 3500
L 594 3500
L 594 4494
L 1172 4494
z
" transform="scale(0.015625)"/>
      <path id="DejaVuSans-69" d="M 603 3500
L 1178 3500
L 1178 0
L 603 0
L 603 3500
z
M 603 4863
L 1178 4863
L 1178 4134
L 603 4134
L 603 4863
z
" transform="scale(0.015625)"/>
      <path id="DejaVuSans-61" d="M 2194 1759
Q 1497 1759 1228 1600
Q 959 1441 959 1056
Q 959 750 1161 570
Q 1363 391 1709 391
Q 2188 391 2477 730
Q 2766 1069 2766 1631
L 2766 1759
L 2194 1759
z
M 3341 1997
L 3341 0
L 2766 0
L 2766 531
Q 2569 213 2275 61
Q 1981 -91 1556 -91
Q 1019 -91 701 211
Q 384 513 384 1019
Q 384 1609 779 1909
Q 1175 2209 1959 2209
L 2766 2209
L 2766 2266
Q 2766 2663 2505 2880
Q 2244 3097 1772 3097
Q 1472 3097 1187 3025
Q 903 2953 641 2809
L 641 3341
Q 956 3463 1253 3523
Q 1550 3584 1831 3584
Q 2591 3584 2966 3190
Q 3341 2797 3341 1997
z
" transform="scale(0.015625)"/>
      <path id="DejaVuSans-6e" d="M 3513 2113
L 3513 0
L 2938 0
L 2938 2094
Q 2938 2591 2744 2837
Q 2550 3084 2163 3084
Q 1697 3084 1428 2787
Q 1159 2491 1159 1978
L 1159 0
L 581 0
L 581 3500
L 1159 3500
L 1159 2956
Q 1366 3272 1645 3428
Q 1925 3584 2291 3584
Q 2894 3584 3203 3211
Q 3513 2838 3513 2113
z
" transform="scale(0.015625)"/>
      <path id="DejaVuSans-73" d="M 2834 3397
L 2834 2853
Q 2591 2978 2328 3040
Q 2066 3103 1784 3103
Q 1356 3103 1142 2972
Q 928 2841 928 2578
Q 928 2378 1081 2264
Q 1234 2150 1697 2047
L 1894 2003
Q 2506 1872 2764 1633
Q 3022 1394 3022 966
Q 3022 478 2636 193
Q 2250 -91 1575 -91
Q 1294 -91 989 -36
Q 684 19 347 128
L 347 722
Q 666 556 975 473
Q 1284 391 1588 391
Q 1994 391 2212 530
Q 2431 669 2431 922
Q 2431 1156 2273 1281
Q 2116 1406 1581 1522
L 1381 1569
Q 847 1681 609 1914
Q 372 2147 372 2553
Q 372 3047 722 3315
Q 1072 3584 1716 3584
Q 2034 3584 2315 3537
Q 2597 3491 2834 3397
z
" transform="scale(0.015625)"/>
     </defs>
     <use xlink:href="#DejaVuSans-47"/>
     <use xlink:href="#DejaVuSans-55" transform="translate(77.490234 0)"/>
     <use xlink:href="#DejaVuSans-49" transform="translate(150.683594 0)"/>
     <use xlink:href="#DejaVuSans-20" transform="translate(180.175781 0)"/>
     <use xlink:href="#DejaVuSans-66" transform="translate(211.962891 0)"/>
     <use xlink:href="#DejaVuSans-6f" transform="translate(247.167969 0)"/>
     <use xlink:href="#DejaVuSans-72" transform="translate(308.349609 0)"/>
     <use xlink:href="#DejaVuSans-20" transform="translate(349.462891 0)"/>
     <use xlink:href="#DejaVuSans-4e" transform="translate(381.25 0)"/>
     <use xlink:href="#DejaVuSans-65" transform="translate(456.054688 0)"/>
     <use xlink:href="#DejaVuSans-67" transform="translate(517.578125 0)"/>
     <use xlink:href="#DejaVuSans-6f" transform="translate(581.054688 0)"/>
     <use xlink:href="#DejaVuSans-74" transform="translate(642.236328 0)"/>
     <use xlink:href="#DejaVuSans-69" transform="translate(681.445312 0)"/>
     <use xlink:href="#DejaVuSans-61" transform="translate(709.228516 0)"/>
     <use xlink:href="#DejaVuSans-74" transform="translate(770.507812 0)"/>
     <use xlink:href="#DejaVuSans-69" transform="translate(809.716797 0)"/>
     <use xlink:href="#DejaVuSans-6f" transform="translate(837.5 0)"/>
     <use xlink:href="#DejaVuSans-6e" transform="translate(898.681641 0)"/>
     <use xlink:href="#DejaVuSans-73" transform="translate(962.060547 0)"/>
    </g>
    <!-- &amp; Tournaments -->
    <g style="fill: #333333" transform="translate(442.534409 208.331727) scale(0.09 -0.09)">
     <defs>
      <path id="DejaVuSans-26" d="M 1556 2509
Q 1272 2256 1139 2004
Q 1006 1753 1006 1478
Q 1006 1022 1337 719
Q 1669 416 2169 416
Q 2466 416 2725 514
Q 2984 613 3213 813
L 1556 2509
z
M 1997 2859
L 3584 1234
Q 3769 1513 3872 1830
Q 3975 2147 3994 2503
L 4575 2503
Q 4538 2091 4375 1687
Q 4213 1284 3922 891
L 4794 0
L 4006 0
L 3559 459
Q 3234 181 2878 45
Q 2522 -91 2113 -91
Q 1359 -91 881 339
Q 403 769 403 1441
Q 403 1841 612 2192
Q 822 2544 1241 2853
Q 1091 3050 1012 3245
Q 934 3441 934 3628
Q 934 4134 1281 4442
Q 1628 4750 2203 4750
Q 2463 4750 2720 4694
Q 2978 4638 3244 4525
L 3244 3956
Q 2972 4103 2725 4179
Q 2478 4256 2266 4256
Q 1938 4256 1733 4082
Q 1528 3909 1528 3634
Q 1528 3475 1620 3314
Q 1713 3153 1997 2859
z
" transform="scale(0.015625)"/>
      <path id="DejaVuSans-54" d="M -19 4666
L 3928 4666
L 3928 4134
L 2272 4134
L 2272 0
L 1638 0
L 1638 4134
L -19 4134
L -19 4666
z
" transform="scale(0.015625)"/>
      <path id="DejaVuSans-75" d="M 544 1381
L 544 3500
L 1119 3500
L 1119 1403
Q 1119 906 1312 657
Q 1506 409 1894 409
Q 2359 409 2629 706
Q 2900 1003 2900 1516
L 2900 3500
L 3475 3500
L 3475 0
L 2900 0
L 2900 538
Q 2691 219 2414 64
Q 2138 -91 1772 -91
Q 1169 -91 856 284
Q 544 659 544 1381
z
M 1991 3584
L 1991 3584
z
" transform="scale(0.015625)"/>
      <path id="DejaVuSans-6d" d="M 3328 2828
Q 3544 3216 3844 3400
Q 4144 3584 4550 3584
Q 5097 3584 5394 3201
Q 5691 2819 5691 2113
L 5691 0
L 5113 0
L 5113 2094
Q 5113 2597 4934 2840
Q 4756 3084 4391 3084
Q 3944 3084 3684 2787
Q 3425 2491 3425 1978
L 3425 0
L 2847 0
L 2847 2094
Q 2847 2600 2669 2842
Q 2491 3084 2119 3084
Q 1678 3084 1418 2786
Q 1159 2488 1159 1978
L 1159 0
L 581 0
L 581 3500
L 1159 3500
L 1159 2956
Q 1356 3278 1631 3431
Q 1906 3584 2284 3584
Q 2666 3584 2933 3390
Q 3200 3197 3328 2828
z
" transform="scale(0.015625)"/>
     </defs>
     <use xlink:href="#DejaVuSans-26"/>
     <use xlink:href="#DejaVuSans-20" transform="translate(77.978516 0)"/>
     <use xlink:href="#DejaVuSans-54" transform="translate(109.765625 0)"/>
     <use xlink:href="#DejaVuSans-6f" transform="translate(153.849609 0)"/>
     <use xlink:href="#DejaVuSans-75" transform="translate(215.03125 0)"/>
     <use xlink:href="#DejaVuSans-72" transform="translate(278.410156 0)"/>
     <use xlink:href="#DejaVuSans-6e" transform="translate(317.773438 0)"/>
     <use xlink:href="#DejaVuSans-61" transform="translate(381.152344 0)"/>
     <use xlink:href="#DejaVuSans-6d" transform="translate(442.431641 0)"/>
     <use xlink:href="#DejaVuSans-65" transform="translate(539.84375 0)"/>
     <use xlink:href="#DejaVuSans-6e" transform="translate(601.367188 0)"/>
     <use xlink:href="#DejaVuSans-74" transform="translate(664.746094 0)"/>
     <use xlink:href="#DejaVuSans-73" transform="translate(703.955078 0)"/>
    </g>
   </g>
   <g id="patch_14">
    <path d="M 384.404738 385.756976
Q 321.081846 343.082853 260.076825 301.970773
" style="fill: none; stroke: #2b6cb0; stroke-width: 2.5; stroke-linecap: round"/>
    <path d="M 262.276183 305.86472
L 260.076825 301.970773
L 264.511597 302.547654
z
" style="fill: #2b6cb0; stroke: #2b6cb0; stroke-width: 2.5; stroke-linecap: round"/>
   </g>
   <g id="patch_15">
    <path d="M 178.205913 271.212646
Q 168.539261 271.212646 161.667694 271.212646
" style="fill: none; stroke: #4299e1; stroke-width: 2.5; stroke-linecap: round"/>
    <path d="M 165.667694 273.212646
L 161.667694 271.212646
L 165.667694 269.212646
z
" style="fill: #4299e1; stroke: #4299e1; stroke-width: 2.5; stroke-linecap: round"/>
   </g>
   <g id="patch_16">
    <path d="M 384.404738 391.346224
Q 321.081846 434.020347 260.076825 475.132427
" style="fill: none; stroke: #2b6cb0; stroke-width: 2.5; stroke-linecap: round"/>
    <path d="M 264.511597 474.555546
L 260.076825 475.132427
L 262.276183 471.23848
z
" style="fill: #2b6cb0; stroke: #2b6cb0; stroke-width: 2.5; stroke-linecap: round"/>
   </g>
   <g id="patch_17">
    <path d="M 160.60865 505.890554
Q 159.742116 505.890554 161.670667 505.890554
" style="fill: none; stroke: #4299e1; stroke-width: 2.5; stroke-linecap: round"/>
    <path d="M 165.670667 507.890554
L 161.670667 505.890554
L 165.670667 503.890554
z
" style="fill: #4299e1; stroke: #4299e1; stroke-width: 2.5; stroke-linecap: round"/>
   </g>
   <g id="patch_18">
    <path d="M 480.01228 343.86939
Q 541.092519 280.012776 600.240731 218.176009
" style="fill: none; stroke: #2b6cb0; stroke-width: 2.5; stroke-linecap: round"/>
    <path d="M 596.030557 219.684131
L 600.240731 218.176009
L 598.921124 222.449021
z
" style="fill: #2b6cb0; stroke: #2b6cb0; stroke-width: 2.5; stroke-linecap: round"/>
   </g>
   <g id="patch_19">
    <path d="M 798.368496 212.543169
Q 802.170113 212.543169 803.176645 212.543169
" style="fill: none; stroke: #4299e1; stroke-width: 2.5; stroke-linecap: round"/>
    <path d="M 799.176645 210.543169
L 803.176645 212.543169
L 799.176645 214.543169
z
" style="fill: #4299e1; stroke: #4299e1; stroke-width: 2.5; stroke-linecap: round"/>
   </g>
   <g id="patch_20">
    <path d="M 569.55861 388.5516
Q 596.829225 388.5516 621.304756 388.5516
" style="fill: none; stroke: #3182ce; stroke-width: 2.5; stroke-linecap: round"/>
    <path d="M 617.304756 386.5516
L 621.304756 388.5516
L 617.304756 390.5516
z
" style="fill: #3182ce; stroke: #3182ce; stroke-width: 2.5; stroke-linecap: round"/>
   </g>
   <g id="patch_21">
    <path d="M 739.700451 388.5516
Q 758.169314 388.5516 773.843093 388.5516
" style="fill: none; stroke: #4299e1; stroke-width: 2.5; stroke-linecap: round"/>
    <path d="M 769.843093 386.5516
L 773.843093 388.5516
L 769.843093 390.5516
z
" style="fill: #4299e1; stroke: #4299e1; stroke-width: 2.5; stroke-linecap: round"/>
   </g>
   <g id="patch_22">
    <path d="M 476.555815 434.623021
Q 476.555815 498.558426 476.555815 559.698746
" style="fill: none; stroke: #3182ce; stroke-width: 2.5; stroke-linecap: round"/>
    <path d="M 478.555815 555.698746
L 476.555815 559.698746
L 474.555815 555.698746
z
" style="fill: #3182ce; stroke: #3182ce; stroke-width: 2.5; stroke-linecap: round"/>
   </g>
   <g id="patch_23">
    <path d="M 476.555815 625.29336
Q 476.555815 648.161998 476.555815 668.23555
" style="fill: none; stroke: #4299e1; stroke-width: 2.5; stroke-linecap: round"/>
    <path d="M 478.555815 664.23555
L 476.555815 668.23555
L 474.555815 664.23555
z
" style="fill: #4299e1; stroke: #4299e1; stroke-width: 2.5; stroke-linecap: round"/>
   </g>
   <g id="patch_24">
    <path d="M 476.555815 342.48479
Q 476.555815 263.882225 476.555815 188.074746
" style="fill: none; stroke: #63b3ed; stroke-width: 2.5; stroke-linecap: round"/>
    <path d="M 474.555815 192.074746
L 476.555815 188.074746
L 478.555815 192.074746
z
" style="fill: #63b3ed; stroke: #63b3ed; stroke-width: 2.5; stroke-linecap: round"/>
   </g>
   <g id="text_19">
    <!-- NegMAS Core Libraries -->
    <g style="fill: #333333" transform="translate(346.737065 41.975363) scale(0.2 -0.2)">
     <defs>
      <path id="DejaVuSans-Bold-43" d="M 4288 256
Q 3956 84 3597 -3
Q 3238 -91 2847 -91
Q 1681 -91 1000 561
Q 319 1213 319 2328
Q 319 3447 1000 4098
Q 1681 4750 2847 4750
Q 3238 4750 3597 4662
Q 3956 4575 4288 4403
L 4288 3438
Q 3953 3666 3628 3772
Q 3303 3878 2944 3878
Q 2300 3878 1931 3465
Q 1563 3053 1563 2328
Q 1563 1606 1931 1193
Q 2300 781 2944 781
Q 3303 781 3628 887
Q 3953 994 4288 1222
L 4288 256
z
" transform="scale(0.015625)"/>
      <path id="DejaVuSans-Bold-6f" d="M 2203 2784
Q 1831 2784 1636 2517
Q 1441 2250 1441 1747
Q 1441 1244 1636 976
Q 1831 709 2203 709
Q 2569 709 2762 976
Q 2956 1244 2956 1747
Q 2956 2250 2762 2517
Q 2569 2784 2203 2784
z
M 2203 3584
Q 3106 3584 3614 3096
Q 4122 2609 4122 1747
Q 4122 884 3614 396
Q 3106 -91 2203 -91
Q 1297 -91 786 396
Q 275 884 275 1747
Q 275 2609 786 3096
Q 1297 3584 2203 3584
z
" transform="scale(0.015625)"/>
      <path id="DejaVuSans-Bold-4c" d="M 588 4666
L 1791 4666
L 1791 909
L 3903 909
L 3903 0
L 588 0
L 588 4666
z
" transform="scale(0.015625)"/>
     </defs>
     <use xlink:href="#DejaVuSans-Bold-4e"/>
     <use xlink:href="#DejaVuSans-Bold-65" transform="translate(83.691406 0)"/>
     <use xlink:href="#DejaVuSans-Bold-67" transform="translate(151.513672 0)"/>
     <use xlink:href="#DejaVuSans-Bold-4d" transform="translate(223.095703 0)"/>
     <use xlink:href="#DejaVuSans-Bold-41" transform="translate(322.607422 0)"/>
     <use xlink:href="#DejaVuSans-Bold-53" transform="translate(400 0)"/>
     <use xlink:href="#DejaVuSans-Bold-20" transform="translate(472.021484 0)"/>
     <use xlink:href="#DejaVuSans-Bold-43" transform="translate(506.835938 0)"/>
     <use xlink:href="#DejaVuSans-Bold-6f" transform="translate(580.224609 0)"/>
     <use xlink:href="#DejaVuSans-Bold-72" transform="translate(648.925781 0)"/>
     <use xlink:href="#DejaVuSans-Bold-65" transform="translate(698.242188 0)"/>
     <use xlink:href="#DejaVuSans-Bold-20" transform="translate(766.064453 0)"/>
     <use xlink:href="#DejaVuSans-Bold-4c" transform="translate(800.878906 0)"/>
     <use xlink:href="#DejaVuSans-Bold-69" transform="translate(864.599609 0)"/>
     <use xlink:href="#DejaVuSans-Bold-62" transform="translate(898.876953 0)"/>
     <use xlink:href="#DejaVuSans-Bold-72" transform="translate(970.458984 0)"/>
     <use xlink:href="#DejaVuSans-Bold-61" transform="translate(1019.775391 0)"/>
     <use xlink:href="#DejaVuSans-Bold-72" transform="translate(1087.255859 0)"/>
     <use xlink:href="#DejaVuSans-Bold-69" transform="translate(1136.572266 0)"/>
     <use xlink:href="#DejaVuSans-Bold-65" transform="translate(1170.849609 0)"/>
     <use xlink:href="#DejaVuSans-Bold-73" transform="translate(1238.671875 0)"/>
    </g>
   </g>
   <g id="legend_1">
    <g id="patch_25">
     <path d="M 180.504644 782.657264
L 776.606987 782.657264
Q 778.406987 782.657264 778.406987 780.857264
L 778.406987 768.546951
Q 778.406987 766.746951 776.606987 766.746951
L 180.504644 766.746951
Q 178.704644 766.746951 178.704644 768.546951
L 178.704644 780.857264
Q 178.704644 782.657264 180.504644 782.657264
z
" style="fill: #4d4d4d; opacity: 0.5; stroke: #4d4d4d; stroke-linejoin: miter"/>
    </g>
    <g id="patch_26">
     <path d="M 178.504644 780.657264
L 774.606987 780.657264
Q 776.406987 780.657264 776.406987 778.857264
L 776.406987 766.546951
Q 776.406987 764.746951 774.606987 764.746951
L 178.504644 764.746951
Q 176.704644 764.746951 176.704644 766.546951
L 176.704644 778.857264
Q 176.704644 780.657264 178.504644 780.657264
z
" style="fill: #ffffff; stroke: #cccccc; stroke-linejoin: miter"/>
    </g>
    <g id="patch_27">
     <path d="M 180.304644 775.185545
L 198.304644 775.185545
L 198.304644 768.885545
L 180.304644 768.885545
z
" style="fill: #1a365d; stroke: #ffffff; stroke-linejoin: miter"/>
    </g>
    <g id="text_20">
     <!-- Core Library -->
     <g transform="translate(205.504644 775.185545) scale(0.09 -0.09)">
      <defs>
       <path id="DejaVuSans-43" d="M 4122 4306
L 4122 3641
Q 3803 3938 3442 4084
Q 3081 4231 2675 4231
Q 1875 4231 1450 3742
Q 1025 3253 1025 2328
Q 1025 1406 1450 917
Q 1875 428 2675 428
Q 3081 428 3442 575
Q 3803 722 4122 1019
L 4122 359
Q 3791 134 3420 21
Q 3050 -91 2638 -91
Q 1578 -91 968 557
Q 359 1206 359 2328
Q 359 3453 968 4101
Q 1578 4750 2638 4750
Q 3056 4750 3426 4639
Q 3797 4528 4122 4306
z
" transform="scale(0.015625)"/>
       <path id="DejaVuSans-4c" d="M 628 4666
L 1259 4666
L 1259 531
L 3531 531
L 3531 0
L 628 0
L 628 4666
z
" transform="scale(0.015625)"/>
       <path id="DejaVuSans-62" d="M 3116 1747
Q 3116 2381 2855 2742
Q 2594 3103 2138 3103
Q 1681 3103 1420 2742
Q 1159 2381 1159 1747
Q 1159 1113 1420 752
Q 1681 391 2138 391
Q 2594 391 2855 752
Q 3116 1113 3116 1747
z
M 1159 2969
Q 1341 3281 1617 3432
Q 1894 3584 2278 3584
Q 2916 3584 3314 3078
Q 3713 2572 3713 1747
Q 3713 922 3314 415
Q 2916 -91 2278 -91
Q 1894 -91 1617 61
Q 1341 213 1159 525
L 1159 0
L 581 0
L 581 4863
L 1159 4863
L 1159 2969
z
" transform="scale(0.015625)"/>
       <path id="DejaVuSans-79" d="M 2059 -325
Q 1816 -950 1584 -1140
Q 1353 -1331 966 -1331
L 506 -1331
L 506 -850
L 844 -850
Q 1081 -850 1212 -737
Q 1344 -625 1503 -206
L 1606 56
L 191 3500
L 800 3500
L 1894 763
L 2988 3500
L 3597 3500
L 2059 -325
z
" transform="scale(0.015625)"/>
      </defs>
      <use xlink:href="#DejaVuSans-43"/>
      <use xlink:href="#DejaVuSans-6f" transform="translate(69.824219 0)"/>
      <use xlink:href="#DejaVuSans-72" transform="translate(131.005859 0)"/>
      <use xlink:href="#DejaVuSans-65" transform="translate(169.869141 0)"/>
      <use xlink:href="#DejaVuSans-20" transform="translate(231.392578 0)"/>
      <use xlink:href="#DejaVuSans-4c" transform="translate(263.179688 0)"/>
      <use xlink:href="#DejaVuSans-69" transform="translate(318.892578 0)"/>
      <use xlink:href="#DejaVuSans-62" transform="translate(346.675781 0)"/>
      <use xlink:href="#DejaVuSans-72" transform="translate(410.152344 0)"/>
      <use xlink:href="#DejaVuSans-61" transform="translate(451.265625 0)"/>
      <use xlink:href="#DejaVuSans-72" transform="translate(512.544922 0)"/>
      <use xlink:href="#DejaVuSans-79" transform="translate(553.658203 0)"/>
     </g>
    </g>
    <g id="patch_28">
     <path d="M 278.661987 775.185545
L 296.661987 775.185545
L 296.661987 768.885545
L 278.661987 768.885545
z
" style="fill: #2b6cb0; stroke: #ffffff; stroke-linejoin: miter"/>
    </g>
    <g id="text_21">
     <!-- Bridges &amp; Adapters -->
     <g transform="translate(303.861987 775.185545) scale(0.09 -0.09)">
      <defs>
       <path id="DejaVuSans-42" d="M 1259 2228
L 1259 519
L 2272 519
Q 2781 519 3026 730
Q 3272 941 3272 1375
Q 3272 1813 3026 2020
Q 2781 2228 2272 2228
L 1259 2228
z
M 1259 4147
L 1259 2741
L 2194 2741
Q 2656 2741 2882 2914
Q 3109 3088 3109 3444
Q 3109 3797 2882 3972
Q 2656 4147 2194 4147
L 1259 4147
z
M 628 4666
L 2241 4666
Q 2963 4666 3353 4366
Q 3744 4066 3744 3513
Q 3744 3084 3544 2831
Q 3344 2578 2956 2516
Q 3422 2416 3680 2098
Q 3938 1781 3938 1306
Q 3938 681 3513 340
Q 3088 0 2303 0
L 628 0
L 628 4666
z
" transform="scale(0.015625)"/>
       <path id="DejaVuSans-64" d="M 2906 2969
L 2906 4863
L 3481 4863
L 3481 0
L 2906 0
L 2906 525
Q 2725 213 2448 61
Q 2172 -91 1784 -91
Q 1150 -91 751 415
Q 353 922 353 1747
Q 353 2572 751 3078
Q 1150 3584 1784 3584
Q 2172 3584 2448 3432
Q 2725 3281 2906 2969
z
M 947 1747
Q 947 1113 1208 752
Q 1469 391 1925 391
Q 2381 391 2643 752
Q 2906 1113 2906 1747
Q 2906 2381 2643 2742
Q 2381 3103 1925 3103
Q 1469 3103 1208 2742
Q 947 2381 947 1747
z
" transform="scale(0.015625)"/>
       <path id="DejaVuSans-41" d="M 2188 4044
L 1331 1722
L 3047 1722
L 2188 4044
z
M 1831 4666
L 2547 4666
L 4325 0
L 3669 0
L 3244 1197
L 1141 1197
L 716 0
L 50 0
L 1831 4666
z
" transform="scale(0.015625)"/>
       <path id="DejaVuSans-70" d="M 1159 525
L 1159 -1331
L 581 -1331
L 581 3500
L 1159 3500
L 1159 2969
Q 1341 3281 1617 3432
Q 1894 3584 2278 3584
Q 2916 3584 3314 3078
Q 3713 2572 3713 1747
Q 3713 922 3314 415
Q 2916 -91 2278 -91
Q 1894 -91 1617 61
Q 1341 213 1159 525
z
M 3116 1747
Q 3116 2381 2855 2742
Q 2594 3103 2138 3103
Q 1681 3103 1420 2742
Q 1159 2381 1159 1747
Q 1159 1113 1420 752
Q 1681 391 2138 391
Q 2594 391 2855 752
Q 3116 1113 3116 1747
z
" transform="scale(0.015625)"/>
      </defs>
      <use xlink:href="#DejaVuSans-42"/>
      <use xlink:href="#DejaVuSans-72" transform="translate(68.603516 0)"/>
      <use xlink:href="#DejaVuSans-69" transform="translate(109.716797 0)"/>
      <use xlink:href="#DejaVuSans-64" transform="translate(137.5 0)"/>
      <use xlink:href="#DejaVuSans-67" transform="translate(200.976562 0)"/>
      <use xlink:href="#DejaVuSans-65" transform="translate(264.453125 0)"/>
      <use xlink:href="#DejaVuSans-73" transform="translate(325.976562 0)"/>
      <use xlink:href="#DejaVuSans-20" transform="translate(378.076172 0)"/>
      <use xlink:href="#DejaVuSans-26" transform="translate(409.863281 0)"/>
      <use xlink:href="#DejaVuSans-20" transform="translate(487.841797 0)"/>
      <use xlink:href="#DejaVuSans-41" transform="translate(519.628906 0)"/>
      <use xlink:href="#DejaVuSans-64" transform="translate(586.287109 0)"/>
      <use xlink:href="#DejaVuSans-61" transform="translate(649.763672 0)"/>
      <use xlink:href="#DejaVuSans-70" transform="translate(711.042969 0)"/>
      <use xlink:href="#DejaVuSans-74" transform="translate(774.519531 0)"/>
      <use xlink:href="#DejaVuSans-65" transform="translate(813.728516 0)"/>
      <use xlink:href="#DejaVuSans-72" transform="translate(875.251953 0)"/>
      <use xlink:href="#DejaVuSans-73" transform="translate(916.365234 0)"/>
     </g>
    </g>
    <g id="patch_29">
     <path d="M 409.025581 775.185545
L 427.025581 775.185545
L 427.025581 768.885545
L 409.025581 768.885545
z
" style="fill: #3182ce; stroke: #ffffff; stroke-linejoin: miter"/>
    </g>
    <g id="text_22">
     <!-- Competition Frameworks -->
     <g transform="translate(434.225581 775.185545) scale(0.09 -0.09)">
      <defs>
       <path id="DejaVuSans-46" d="M 628 4666
L 3309 4666
L 3309 4134
L 1259 4134
L 1259 2759
L 3109 2759
L 3109 2228
L 1259 2228
L 1259 0
L 628 0
L 628 4666
z
" transform="scale(0.015625)"/>
       <path id="DejaVuSans-77" d="M 269 3500
L 844 3500
L 1563 769
L 2278 3500
L 2956 3500
L 3675 769
L 4391 3500
L 4966 3500
L 4050 0
L 3372 0
L 2619 2869
L 1863 0
L 1184 0
L 269 3500
z
" transform="scale(0.015625)"/>
       <path id="DejaVuSans-6b" d="M 581 4863
L 1159 4863
L 1159 1991
L 2875 3500
L 3609 3500
L 1753 1863
L 3688 0
L 2938 0
L 1159 1709
L 1159 0
L 581 0
L 581 4863
z
" transform="scale(0.015625)"/>
      </defs>
      <use xlink:href="#DejaVuSans-43"/>
      <use xlink:href="#DejaVuSans-6f" transform="translate(69.824219 0)"/>
      <use xlink:href="#DejaVuSans-6d" transform="translate(131.005859 0)"/>
      <use xlink:href="#DejaVuSans-70" transform="translate(228.417969 0)"/>
      <use xlink:href="#DejaVuSans-65" transform="translate(291.894531 0)"/>
      <use xlink:href="#DejaVuSans-74" transform="translate(353.417969 0)"/>
      <use xlink:href="#DejaVuSans-69" transform="translate(392.626953 0)"/>
      <use xlink:href="#DejaVuSans-74" transform="translate(420.410156 0)"/>
      <use xlink:href="#DejaVuSans-69" transform="translate(459.619141 0)"/>
      <use xlink:href="#DejaVuSans-6f" transform="translate(487.402344 0)"/>
      <use xlink:href="#DejaVuSans-6e" transform="translate(548.583984 0)"/>
      <use xlink:href="#DejaVuSans-20" transform="translate(611.962891 0)"/>
      <use xlink:href="#DejaVuSans-46" transform="translate(643.75 0)"/>
      <use xlink:href="#DejaVuSans-72" transform="translate(694.019531 0)"/>
      <use xlink:href="#DejaVuSans-61" transform="translate(735.132812 0)"/>
      <use xlink:href="#DejaVuSans-6d" transform="translate(796.412109 0)"/>
      <use xlink:href="#DejaVuSans-65" transform="translate(893.824219 0)"/>
      <use xlink:href="#DejaVuSans-77" transform="translate(955.347656 0)"/>
      <use xlink:href="#DejaVuSans-6f" transform="translate(1037.134766 0)"/>
      <use xlink:href="#DejaVuSans-72" transform="translate(1098.316406 0)"/>
      <use xlink:href="#DejaVuSans-6b" transform="translate(1139.429688 0)"/>
      <use xlink:href="#DejaVuSans-73" transform="translate(1197.339844 0)"/>
     </g>
    </g>
    <g id="patch_30">
     <path d="M 564.67355 775.185545
L 582.67355 775.185545
L 582.67355 768.885545
L 564.67355 768.885545
z
" style="fill: #4299e1; stroke: #ffffff; stroke-linejoin: miter"/>
    </g>
    <g id="text_23">
     <!-- Agent Repositories -->
     <g transform="translate(589.87355 775.185545) scale(0.09 -0.09)">
      <defs>
       <path id="DejaVuSans-52" d="M 2841 2188
Q 3044 2119 3236 1894
Q 3428 1669 3622 1275
L 4263 0
L 3584 0
L 2988 1197
Q 2756 1666 2539 1819
Q 2322 1972 1947 1972
L 1259 1972
L 1259 0
L 628 0
L 628 4666
L 2053 4666
Q 2853 4666 3247 4331
Q 3641 3997 3641 3322
Q 3641 2881 3436 2590
Q 3231 2300 2841 2188
z
M 1259 4147
L 1259 2491
L 2053 2491
Q 2509 2491 2742 2702
Q 2975 2913 2975 3322
Q 2975 3731 2742 3939
Q 2509 4147 2053 4147
L 1259 4147
z
" transform="scale(0.015625)"/>
      </defs>
      <use xlink:href="#DejaVuSans-41"/>
      <use xlink:href="#DejaVuSans-67" transform="translate(68.408203 0)"/>
      <use xlink:href="#DejaVuSans-65" transform="translate(131.884766 0)"/>
      <use xlink:href="#DejaVuSans-6e" transform="translate(193.408203 0)"/>
      <use xlink:href="#DejaVuSans-74" transform="translate(256.787109 0)"/>
      <use xlink:href="#DejaVuSans-20" transform="translate(295.996094 0)"/>
      <use xlink:href="#DejaVuSans-52" transform="translate(327.783203 0)"/>
      <use xlink:href="#DejaVuSans-65" transform="translate(392.765625 0)"/>
      <use xlink:href="#DejaVuSans-70" transform="translate(454.289062 0)"/>
      <use xlink:href="#DejaVuSans-6f" transform="translate(517.765625 0)"/>
      <use xlink:href="#DejaVuSans-73" transform="translate(578.947266 0)"/>
      <use xlink:href="#DejaVuSans-69" transform="translate(631.046875 0)"/>
      <use xlink:href="#DejaVuSans-74" transform="translate(658.830078 0)"/>
      <use xlink:href="#DejaVuSans-6f" transform="translate(698.039062 0)"/>
      <use xlink:href="#DejaVuSans-72" transform="translate(759.220703 0)"/>
      <use xlink:href="#DejaVuSans-69" transform="translate(800.333984 0)"/>
      <use xlink:href="#DejaVuSans-65" transform="translate(828.117188 0)"/>
      <use xlink:href="#DejaVuSans-73" transform="translate(889.640625 0)"/>
     </g>
    </g>
    <g id="patch_31">
     <path d="M 692.63105 775.185545
L 710.63105 775.185545
L 710.63105 768.885545
L 692.63105 768.885545
z
" style="fill: #63b3ed; stroke: #ffffff; stroke-linejoin: miter"/>
    </g>
    <g id="text_24">
     <!-- Applications -->
     <g transform="translate(717.83105 775.185545) scale(0.09 -0.09)">
      <defs>
       <path id="DejaVuSans-6c" d="M 603 4863
L 1178 4863
L 1178 0
L 603 0
L 603 4863
z
" transform="scale(0.015625)"/>
       <path id="DejaVuSans-63" d="M 3122 3366
L 3122 2828
Q 2878 2963 2633 3030
Q 2388 3097 2138 3097
Q 1578 3097 1268 2742
Q 959 2388 959 1747
Q 959 1106 1268 751
Q 1578 397 2138 397
Q 2388 397 2633 464
Q 2878 531 3122 666
L 3122 134
Q 2881 22 2623 -34
Q 2366 -91 2075 -91
Q 1284 -91 818 406
Q 353 903 353 1747
Q 353 2603 823 3093
Q 1294 3584 2113 3584
Q 2378 3584 2631 3529
Q 2884 3475 3122 3366
z
" transform="scale(0.015625)"/>
      </defs>
      <use xlink:href="#DejaVuSans-41"/>
      <use xlink:href="#DejaVuSans-70" transform="translate(68.408203 0)"/>
      <use xlink:href="#DejaVuSans-70" transform="translate(131.884766 0)"/>
      <use xlink:href="#DejaVuSans-6c" transform="translate(195.361328 0)"/>
      <use xlink:href="#DejaVuSans-69" transform="translate(223.144531 0)"/>
      <use xlink:href="#DejaVuSans-63" transform="translate(250.927734 0)"/>
      <use xlink:href="#DejaVuSans-61" transform="translate(305.908203 0)"/>
      <use xlink:href="#DejaVuSans-74" transform="translate(367.1875 0)"/>
      <use xlink:href="#DejaVuSans-69" transform="translate(406.396484 0)"/>
      <use xlink:href="#DejaVuSans-6f" transform="translate(434.179688 0)"/>
      <use xlink:href="#DejaVuSans-6e" transform="translate(495.361328 0)"/>
      <use xlink:href="#DejaVuSans-73" transform="translate(558.740234 0)"/>
     </g>
    </g>
   </g>
  </g>
 </g>
 <defs>
  <clipPath id="pd3e7b617d9">
   <rect x="7.2" y="7.2" width="938.711631" height="762.7032"/>
  </clipPath>
 </defs>
</svg>
